<?xml version="1.0"?>
<!-- Created with xTool Creative Space (https://www.xtool.com/pages/software) -->
<svg xmlns="http://www.w3.org/2000/svg" xmlns:xlink="http://www.w3.org/1999/xlink" xmlns:xcs="https://www.xtool.com/pages/software" version="1.1" preserveAspectRatio="xMinYMin meet" width="27.800039052963243mm" height="29.80000114440918mm" viewBox="0 0 27.800039052963243 29.80000114440918" xcs:version="2.2.23"><style>svg * { vector-effect: non-scaling-stroke; stroke-width: 1px; }</style>
<path transform="matrix(1,0,0,1,28.829399,50.818501)" stroke="#2366ff" fill="none" d="M -4.56828 -38.676 L -4.56828 -41.2469 L -4.57688 -41.2469 L -7.14773 -41.2469 L -7.14773 -41.2383 L -7.14773 -38.6674 L -7.13913 -38.6674 L -4.56828 -38.6674 z  M -4.11756 -35.1881 L -4.11756 -32.6176 L -4.10896 -32.6176 L -1.53845 -32.6176 L -1.53845 -32.6262 L -1.53845 -35.1967 L -1.54704 -35.1967 L -4.11756 -35.1967 z  M -10.6281 -38.6673 L -13.1993 -38.6673 L -13.2079 -38.6673 L -13.2079 -41.2384 L -13.2079 -41.247 L -10.6367 -41.247 L -10.6281 -41.247 L -10.6281 -38.6759 z  M -19.2539 -35.1885 L -19.2539 -35.1971 L -16.6826 -35.1971 L -16.674 -35.1971 L -16.674 -32.6258 L -16.674 -32.6172 L -19.2453 -32.6172 L -19.2539 -32.6172 z  M -28.3453 -23.5421 L -28.3366 -23.5421 L -25.7651 -23.5421 L -25.7651 -23.5507 L -25.7651 -26.1222 L -25.7737 -26.1222 L -28.3453 -26.1222 L -28.3453 -26.1136 z  M -28.3453 -29.1473 L -28.3453 -29.1387 L -28.3453 -26.567 L -28.3367 -26.567 L -25.765 -26.567 L -25.765 -26.5756 L -25.765 -29.1473 L -25.7736 -29.1473 z  M -7.13905 -32.6175 L -7.14764 -32.6175 L -7.14764 -35.1882 L -7.14764 -35.1968 L -4.57696 -35.1968 L -4.56837 -35.1968 L -4.56837 -32.6261 L -4.56837 -32.6175 z  M -13.2079 -41.6922 L -13.2079 -44.2635 L -13.2079 -44.2721 L -10.6367 -44.2721 L -10.6281 -44.2721 L -10.6281 -41.7008 L -10.6281 -41.6922 L -13.1993 -41.6922 z  M -25.7647 -47.7503 L -25.7647 -50.3226 L -25.7733 -50.3226 L -28.3456 -50.3226 L -28.3456 -50.314 L -28.3456 -47.7417 L -28.337 -47.7417 L -25.7647 -47.7417 z  M -22.7339 -29.6007 L -22.7339 -32.1722 L -22.7425 -32.1722 L -25.314 -32.1722 L -25.314 -32.1636 L -25.314 -29.5921 L -25.3054 -29.5921 L -22.7339 -29.5921 z  M -19.254 -41.2472 L -16.6825 -41.2472 L -16.6739 -41.2472 L -16.6739 -38.6757 L -16.6739 -38.6671 L -19.2454 -38.6671 L -19.254 -38.6671 L -19.254 -41.2386 z  M -25.3141 -35.1887 L -25.3141 -32.617 L -25.3055 -32.617 L -22.7338 -32.617 L -22.7338 -32.6256 L -22.7338 -35.1973 L -22.7424 -35.1973 L -25.3141 -35.1973 z  M -4.11765 -41.2382 L -4.11765 -38.6675 L -4.10905 -38.6675 L -1.53836 -38.6675 L -1.53836 -38.6761 L -1.53836 -41.2468 L -1.54696 -41.2468 L -4.11765 -41.2468 z  M -10.6366 -47.2971 L -10.628 -47.2971 L -10.628 -44.7258 L -10.628 -44.7172 L -13.1994 -44.7172 L -13.208 -44.7172 L -13.208 -47.2885 L -13.208 -47.2971 z  M -3.52832 -21.0185 L -26.4657 -21.0185 L -26.4736 -21.0263 L -28.8294 -23.3821 L -28.8294 -23.4736 L -28.8294 -50.8185 L -1.12203 -50.8185 L -1.02937 -50.8185 L -1.02936 -23.5319 L -1.02936 -23.4407 L -1.03744 -23.4326 L -3.45161 -21.0185 z  M -25.3141 -38.2167 L -25.3141 -35.6449 L -25.3055 -35.6449 L -22.7338 -35.6449 L -22.7338 -35.6536 L -22.7338 -38.2253 L -22.7424 -38.2253 L -25.3141 -38.2253 z  M -13.1992 -32.6173 L -10.6282 -32.6173 L -10.6282 -32.6259 L -10.6282 -35.197 L -10.6368 -35.197 L -13.2078 -35.1969 L -13.2078 -35.1884 L -13.2078 -32.6173 z  M -25.3142 -41.2388 L -25.3142 -38.6669 L -25.3056 -38.6669 L -22.7337 -38.6669 L -22.7337 -38.6755 L -22.7337 -41.2474 L -22.7423 -41.2474 L -25.3142 -41.2474 z  M -22.7339 -26.5757 L -22.7339 -29.1472 L -22.7425 -29.1472 L -25.314 -29.1472 L -25.314 -29.1386 L -25.314 -26.5671 L -25.3054 -26.5671 L -22.7339 -26.5671 z  M -25.3142 -44.2638 L -25.3142 -41.6919 L -25.3056 -41.6919 L -22.7337 -41.6919 L -22.7337 -41.7005 L -22.7337 -44.2724 L -22.7423 -44.2724 L -25.3142 -44.2724 z  M -22.7336 -44.7168 L -22.7336 -44.7254 L -22.7336 -47.2975 L -22.7422 -47.2975 L -25.3142 -47.2975 L -25.3142 -47.2889 L -25.3142 -44.7168 L -25.3056 -44.7168 z  M -16.6738 -44.717 L -16.6738 -44.7256 L -16.6738 -47.2973 L -16.6824 -47.2973 L -19.2541 -47.2973 L -19.2541 -47.2887 L -19.2541 -44.717 L -19.2455 -44.717 z  M -22.2768 -44.7169 L -19.7049 -44.7169 L -19.7049 -44.7255 L -19.7049 -47.2974 L -19.7135 -47.2974 L -22.2854 -47.2974 L -22.2854 -47.2888 L -22.2854 -44.7169 z  M -16.6739 -35.6537 L -16.6739 -38.2251 L -16.6825 -38.2251 L -19.254 -38.2251 L -19.254 -38.2165 L -19.254 -35.6451 L -19.2454 -35.6451 L -16.6739 -35.6451 z  M -22.7336 -50.3225 L -22.7422 -50.3225 L -25.3143 -50.3225 L -25.3143 -50.3139 L -25.3143 -47.7418 L -25.3057 -47.7418 L -22.7336 -47.7418 L -22.7336 -47.7504 z  M -10.6282 -35.6453 L -10.6282 -35.6539 L -10.6282 -38.225 L -10.6368 -38.225 L -13.2079 -38.225 L -13.2079 -38.2164 L -13.2079 -35.6453 L -13.1993 -35.6453 z  M -16.2307 -44.7171 L -13.6592 -44.7171 L -13.6592 -44.7257 L -13.6592 -47.2972 L -13.6678 -47.2972 L -16.2393 -47.2972 L -16.2393 -47.2886 L -16.2393 -44.7171 z  M -16.6738 -41.7006 L -16.6738 -44.2722 L -16.6824 -44.2722 L -19.254 -44.2722 L -19.254 -44.2636 L -19.254 -41.6921 L -19.2454 -41.6921 L -16.6738 -41.6921 z  M -4.56845 -26.5676 L -7.13896 -26.5676 L -7.14756 -26.5676 L -7.14756 -29.1381 L -7.14756 -29.1467 L -4.57705 -29.1467 L -4.56845 -29.1467 L -4.56845 -26.5762 z  M -16.2393 -50.3223 L -16.2393 -50.3136 L -16.2393 -47.742 L -16.2307 -47.742 L -13.6591 -47.742 L -13.6591 -47.7506 L -13.6591 -50.3223 L -13.6677 -50.3223 z  M -10.1705 -44.7173 L -7.59933 -44.7173 L -7.59933 -44.7259 L -7.59933 -47.297 L -7.60793 -47.297 L -10.1791 -47.297 L -10.1791 -47.2884 L -10.1791 -44.7173 z  M -10.6283 -26.5674 L -13.1991 -26.5674 L -13.2077 -26.5674 L -13.2077 -29.1383 L -13.2077 -29.1469 L -10.6369 -29.1469 L -10.6283 -29.1469 L -10.6283 -26.576 z  M -10.1792 -50.3221 L -10.1792 -50.3135 L -10.1792 -47.7422 L -10.1706 -47.7422 L -7.59929 -47.7422 L -7.59929 -47.7508 L -7.59929 -50.3221 L -7.60789 -50.3221 z  M -7.14782 -44.7173 L -7.13922 -44.7173 L -4.56819 -44.7173 L -4.56819 -44.7259 L -4.56819 -47.297 L -4.57679 -47.297 L -7.14782 -47.297 L -7.14782 -47.2884 z  M -22.7425 -26.1221 L -25.3139 -26.1221 L -25.3139 -26.1135 L -25.3139 -23.5421 L -25.3053 -23.5421 L -22.7339 -23.5421 L -22.7339 -23.5507 L -22.7339 -26.1221 z  M -7.14786 -50.3134 L -7.14786 -50.322 L -4.57675 -50.322 L -4.56815 -50.322 L -4.56815 -47.7509 L -4.56815 -47.7423 L -7.13926 -47.7423 L -7.14786 -47.7423 z  M -28.337 -44.7168 L -28.3456 -44.7168 L -28.3456 -47.2889 L -28.3456 -47.2975 L -25.7734 -47.2975 L -25.7648 -47.2975 L -25.7648 -44.7254 L -25.7648 -44.7168 z  M -22.2766 -29.5921 L -19.7052 -29.5921 L -19.7052 -29.6007 L -19.7052 -32.1722 L -19.7138 -32.1722 L -22.2852 -32.1722 L -22.2852 -32.1636 L -22.2852 -29.5921 z  M -13.1992 -29.5924 L -10.6282 -29.5924 L -10.6282 -29.601 L -10.6282 -32.1719 L -10.6368 -32.1719 L -13.2078 -32.1719 L -13.2078 -32.1633 L -13.2078 -29.5924 z  M -19.2541 -50.3137 L -19.2541 -50.3223 L -16.6824 -50.3223 L -16.6738 -50.3223 L -16.6738 -47.7506 L -16.6738 -47.742 L -19.2455 -47.742 L -19.2541 -47.742 z  M -13.208 -50.3222 L -13.208 -50.3136 L -13.208 -47.7421 L -13.1994 -47.7421 L -10.628 -47.7421 L -10.628 -47.7507 L -10.628 -50.3222 L -10.6366 -50.3222 z  M -22.2854 -50.3138 L -22.2854 -50.3224 L -19.7135 -50.3224 L -19.7049 -50.3224 L -19.7049 -47.7505 L -19.7049 -47.7419 L -22.2768 -47.7419 L -22.2854 -47.7419 z  M -19.7052 -26.5672 L -22.2765 -26.5672 L -22.2851 -26.5672 L -22.2851 -29.1385 L -22.2851 -29.1471 L -19.7138 -29.1471 L -19.7052 -29.1471 L -19.7052 -26.5758 z  M -7.59959 -26.5761 L -7.59959 -29.1468 L -7.60819 -29.1468 L -10.1789 -29.1468 L -10.1789 -29.1382 L -10.1789 -26.5675 L -10.1703 -26.5675 L -7.59959 -26.5675 z  M -4.56841 -29.6012 L -4.56841 -32.1717 L -4.57701 -32.1717 L -7.1476 -32.1717 L -7.1476 -32.1631 L -7.1476 -29.5926 L -7.139 -29.5926 L -4.56841 -29.5926 z  M -13.6594 -26.5759 L -13.6594 -29.1469 L -13.668 -29.1469 L -16.239 -29.1469 L -16.239 -29.1383 L -16.239 -26.5673 L -16.2304 -26.5673 L -13.6594 -26.5673 z  M -16.6741 -26.5759 L -16.6741 -29.147 L -16.6827 -29.147 L -19.2538 -29.147 L -19.2538 -29.1384 L -19.2538 -26.5673 L -19.2452 -26.5673 L -16.6741 -26.5673 z  M -22.2767 -35.645 L -19.7051 -35.645 L -19.7051 -35.6536 L -19.7051 -38.2252 L -19.7137 -38.2252 L -22.2853 -38.2252 L -22.2853 -38.2166 L -22.2853 -35.645 z  M -7.59964 -23.5426 L -10.1702 -23.5426 L -10.1788 -23.5426 L -10.1788 -26.1131 L -10.1788 -26.1217 L -7.60823 -26.1217 L -7.59964 -26.1217 L -7.59964 -23.5512 z  M -16.2305 -29.5923 L -13.6594 -29.5923 L -13.6594 -29.6009 L -13.6594 -32.172 L -13.668 -32.172 L -16.2391 -32.172 L -16.2391 -32.1634 L -16.2391 -29.5923 z  M -10.6282 -22.7194 L -10.6282 -22.708 L -10.6569 -22.708 L -19.2539 -22.708 L -19.2539 -22.7194 L -19.2539 -26.1221 L -10.6569 -26.1221 L -10.6282 -26.1221 z  M -22.2851 -26.1221 L -19.7138 -26.1221 L -19.7052 -26.1221 L -19.7052 -23.5508 L -19.7052 -23.5422 L -22.2765 -23.5422 L -22.2851 -23.5422 L -22.2851 -26.1135 z  M -4.56832 -35.654 L -4.56832 -38.2248 L -4.57692 -38.2248 L -7.14769 -38.2248 L -7.14769 -38.2162 L -7.14769 -35.6454 L -7.13909 -35.6454 L -4.56832 -35.6454 z  M -7.14751 -23.5426 L -7.14751 -26.1131 L -7.14751 -26.1217 L -4.57709 -26.1217 L -4.5685 -26.1217 L -4.5685 -23.5512 L -4.5685 -23.5426 L -7.13892 -23.5426 z  M -22.2767 -41.692 L -19.705 -41.692 L -19.705 -41.7006 L -19.705 -44.2723 L -19.7136 -44.2723 L -22.2853 -44.2723 L -22.2853 -44.2637 L -22.2853 -41.692 z  M -4.57683 -44.2719 L -7.14777 -44.2719 L -7.14777 -44.2633 L -7.14777 -41.6924 L -7.13918 -41.6924 L -4.56823 -41.6924 L -4.56823 -41.701 L -4.56823 -44.2719 z  M -22.2766 -32.6171 L -19.7051 -32.6171 L -19.7051 -32.6257 L -19.7051 -35.1972 L -19.7137 -35.1972 L -22.2852 -35.1972 L -22.2852 -35.1886 L -22.2852 -32.6171 z  M -16.2306 -35.6452 L -13.6593 -35.6452 L -13.6593 -35.6538 L -13.6593 -38.2251 L -13.6679 -38.2251 L -16.2392 -38.2251 L -16.2392 -38.2165 L -16.2392 -35.6452 z  M -10.1704 -38.6673 L -7.59942 -38.6673 L -7.59942 -38.6759 L -7.59942 -41.247 L -7.60802 -41.247 L -10.179 -41.247 L -10.179 -41.2384 L -10.179 -38.6673 z  M -28.3367 -29.592 L -28.3453 -29.592 L -28.3453 -32.1637 L -28.3453 -32.1723 L -25.7736 -32.1723 L -25.765 -32.1723 L -25.765 -29.6006 L -25.765 -29.592 z  M -22.2767 -38.667 L -19.705 -38.667 L -19.705 -38.6756 L -19.705 -41.2473 L -19.7136 -41.2473 L -22.2853 -41.2473 L -22.2853 -41.2387 L -22.2853 -38.667 z  M -16.2306 -41.6921 L -13.6592 -41.6921 L -13.6592 -41.7007 L -13.6592 -44.2722 L -13.6678 -44.2722 L -16.2392 -44.2722 L -16.2392 -44.2636 L -16.2392 -41.6921 z  M -1.53858 -26.1216 L -1.54717 -26.1216 L -4.11743 -26.1216 L -4.11743 -26.113 L -4.11743 -23.5427 L -4.10883 -23.5427 L -1.53858 -23.5427 L -1.53858 -23.5513 z  M -10.1704 -32.6174 L -7.59951 -32.6174 L -7.59951 -32.626 L -7.59951 -35.1969 L -7.6081 -35.1969 L -10.1789 -35.1969 L -10.1789 -35.1883 L -10.1789 -32.6174 z  M -1.54687 -47.2969 L -4.11774 -47.2969 L -4.11774 -47.2883 L -4.11774 -44.7174 L -4.10914 -44.7174 L -1.53827 -44.7174 L -1.53827 -44.726 L -1.53827 -47.2969 z  M -28.3368 -35.6449 L -28.3454 -35.6449 L -28.3454 -38.2168 L -28.3454 -38.2254 L -25.7735 -38.2254 L -25.7649 -38.2254 L -25.7649 -35.6535 L -25.7649 -35.6449 z  M -28.3369 -38.6668 L -28.3455 -38.6668 L -28.3455 -41.2388 L -28.3455 -41.2474 L -25.7735 -41.2474 L -25.7649 -41.2474 L -25.7649 -38.6754 L -25.7649 -38.6668 z  M -28.3368 -32.6169 L -28.3454 -32.6169 L -28.3454 -35.1888 L -28.3454 -35.1974 L -25.7736 -35.1974 L -25.765 -35.1974 L -25.765 -32.6255 L -25.765 -32.6169 z  M -28.3369 -41.6918 L -28.3455 -41.6918 L -28.3455 -44.2639 L -28.3455 -44.2725 L -25.7734 -44.2725 L -25.7648 -44.2725 L -25.7648 -41.7004 L -25.7648 -41.6918 z  M -4.11752 -32.1631 L -4.11752 -29.5926 L -4.10892 -29.5926 L -1.53849 -29.5926 L -1.53849 -29.6012 L -1.53849 -32.1717 L -1.54709 -32.1717 L -4.11752 -32.1717 z  M -16.2305 -32.6173 L -13.6593 -32.6173 L -13.6593 -32.6259 L -13.6593 -35.197 L -13.6679 -35.197 L -16.2391 -35.197 L -16.2391 -35.1884 L -16.2391 -32.6173 z  M -10.1705 -41.6923 L -7.59937 -41.6923 L -7.59937 -41.7009 L -7.59937 -44.272 L -7.60797 -44.272 L -10.1791 -44.272 L -10.1791 -44.2634 L -10.1791 -41.6923 z  M -1.53854 -26.5677 L -4.10888 -26.5677 L -4.11747 -26.5677 L -4.11747 -29.138 L -4.11747 -29.1466 L -1.54713 -29.1466 L -1.53854 -29.1466 L -1.53854 -26.5763 z  M -16.2306 -38.6672 L -13.6593 -38.6672 L -13.6593 -38.6758 L -13.6593 -41.2471 L -13.6679 -41.2471 L -16.2392 -41.2471 L -16.2392 -41.2385 L -16.2392 -38.6672 z  M -10.1704 -35.6454 L -7.59946 -35.6454 L -7.59946 -35.654 L -7.59946 -38.2249 L -7.60806 -38.2249 L -10.179 -38.2249 L -10.179 -38.2163 L -10.179 -35.6454 z  M -19.2453 -29.5922 L -16.674 -29.5922 L -16.674 -29.6008 L -16.674 -32.1721 L -16.6826 -32.1721 L -19.2539 -32.1721 L -19.2539 -32.1635 L -19.2539 -29.5922 z  M -4.11761 -38.2161 L -4.1176 -35.6455 L -4.10901 -35.6455 L -1.5384 -35.6455 L -1.5384 -35.6541 L -1.5384 -38.2247 L -1.547 -38.2247 L -4.11761 -38.2247 z  M -4.11778 -47.7424 L -4.11778 -50.3133 L -4.11778 -50.3219 L -1.54683 -50.3219 L -1.53823 -50.3219 L -1.53823 -47.751 L -1.53823 -47.7424 L -4.10918 -47.7424 z  M -4.11769 -44.2632 L -4.11769 -41.6925 L -4.10909 -41.6925 L -1.53832 -41.6925 L -1.53832 -41.7011 L -1.53832 -44.2718 L -1.54692 -44.2718 L -4.11769 -44.2718 z  M -10.1703 -29.5925 L -7.59955 -29.5925 L -7.59955 -29.6011 L -7.59955 -32.1718 L -7.60815 -32.1718 L -10.1789 -32.1718 L -10.1789 -32.1632 L -10.1789 -29.5925 z  " fill-rule="nonzero"></path></svg>