<?xml version="1.0"?>
<!-- Created with xTool Creative Space (https://www.xtool.com/pages/software) -->
<svg xmlns="http://www.w3.org/2000/svg" xmlns:xlink="http://www.w3.org/1999/xlink" xmlns:xcs="https://www.xtool.com/pages/software" version="1.1" preserveAspectRatio="xMinYMin meet" width="318.1591880935212mm" height="318.1591880935214mm" viewBox="-7.931877784940795 -10.022427889692523 318.1591880935212 318.1591880935214" xcs:version="2.2.23"><style>svg * { vector-effect: non-scaling-stroke; stroke-width: 1px; }</style>
<path transform="matrix(0.707107,-0.707107,0.707107,0.707107,500.72307,-148.267662)" stroke="#2366ff" fill="none" d="M -464.543 -38.0227 L -464.383 -37.9549 L -464.383 -37.9546 L -464.237 -37.86 L -464.237 -37.8597 L -464.11 -37.7413 L -464.109 -37.7409 L -464.005 -37.6021 L -464.004 -37.6017 L -463.925 -37.4469 L -463.925 -37.4464 L -463.874 -37.2803 L -463.874 -37.2797 L -463.853 -37.1073 L -463.853 -37.1067 L -463.862 -36.9332 L -463.862 -36.9326 L -463.901 -36.7633 L -463.901 -36.7628 L -463.969 -36.6028 L -463.969 -36.6023 L -463.969 -36.6018 L -464.064 -36.4561 L -464.064 -36.4557 L -464.183 -36.3286 L -464.183 -36.3282 L -464.322 -36.2236 L -464.323 -36.2234 L -464.477 -36.1445 L -464.478 -36.1443 L -464.644 -36.0935 L -464.645 -36.0934 L -464.817 -36.0722 L -464.818 -36.0722 L -464.991 -36.0813 L -464.992 -36.0814 L -465.161 -36.1204 L -465.162 -36.1207 L -465.321 -36.1885 L -465.322 -36.1888 L -465.468 -36.2834 L -465.468 -36.2838 L -465.595 -36.4023 L -465.596 -36.4027 L -465.7 -36.5415 L -465.7 -36.542 L -465.779 -36.6968 L -465.779 -36.6973 L -465.83 -36.8634 L -465.83 -36.864 L -465.852 -37.0365 L -465.852 -37.037 L -465.842 -37.2105 L -465.842 -37.2111 L -465.803 -37.3804 L -465.803 -37.3809 L -465.735 -37.5408 L -465.641 -37.6866 L -465.64 -37.6871 L -465.522 -37.8141 L -465.521 -37.8146 L -465.383 -37.9192 L -465.382 -37.9195 L -465.228 -37.9984 L -465.227 -37.9987 L -465.061 -38.0495 L -465.06 -38.0497 L -464.888 -38.0709 L -464.887 -38.071 L -464.714 -38.0619 L -464.713 -38.0619 L -464.544 -38.0228 z  M -606.273 -37.9003 L -606.113 -37.8325 L -606.113 -37.8322 L -605.967 -37.7377 L -605.967 -37.7373 L -605.84 -37.6189 L -605.839 -37.6185 L -605.735 -37.4798 L -605.734 -37.4793 L -605.655 -37.3245 L -605.655 -37.324 L -605.604 -37.1579 L -605.604 -37.1573 L -605.583 -36.9849 L -605.583 -36.9843 L -605.592 -36.8108 L -605.592 -36.8102 L -605.631 -36.641 L -605.631 -36.6404 L -605.699 -36.4805 L -605.699 -36.4799 L -605.699 -36.4794 L -605.794 -36.3337 L -605.794 -36.3333 L -605.913 -36.2062 L -605.913 -36.2058 L -606.052 -36.1013 L -606.053 -36.101 L -606.207 -36.0221 L -606.208 -36.0219 L -606.374 -35.9711 L -606.375 -35.971 L -606.547 -35.9498 L -606.548 -35.9498 L -606.721 -35.9589 L -606.722 -35.959 L -606.891 -35.9981 L -606.891 -35.9983 L -607.051 -36.0661 L -607.052 -36.0665 L -607.198 -36.161 L -607.198 -36.1614 L -607.325 -36.2799 L -607.325 -36.2804 L -607.43 -36.4191 L -607.43 -36.4196 L -607.509 -36.5744 L -607.509 -36.5749 L -607.56 -36.7411 L -607.56 -36.7416 L -607.582 -36.9141 L -607.581 -36.9147 L -607.572 -37.0881 L -607.572 -37.0887 L -607.533 -37.258 L -607.533 -37.2585 L -607.465 -37.4185 L -607.371 -37.5642 L -607.37 -37.5647 L -607.252 -37.6918 L -607.251 -37.6922 L -607.113 -37.7968 L -607.112 -37.7971 L -606.957 -37.876 L -606.957 -37.8763 L -606.791 -37.9271 L -606.79 -37.9273 L -606.618 -37.9485 L -606.617 -37.9486 L -606.444 -37.9395 L -606.443 -37.9395 L -606.274 -37.9005 z  M -293.494 -71.4117 L -293.502 -71.4187 L -295.969 -73.346 L -295.977 -73.3525 L -298.572 -75.103 L -298.581 -75.1089 L -301.292 -76.6741 L -301.301 -76.6793 L -304.115 -78.0517 L -304.124 -78.0562 L -307.027 -79.2289 L -307.037 -79.2329 L -310.014 -80.2002 L -310.024 -80.2035 L -313.061 -80.9608 L -313.071 -80.9633 L -316.154 -81.5069 L -316.165 -81.5088 L -319.278 -81.836 L -319.288 -81.8371 L -322.417 -81.9463 L -322.427 -81.9467 L -591.527 -81.9467 L -592.427 -81.9467 L -595.556 -81.8374 L -595.566 -81.8371 L -598.68 -81.5099 L -598.69 -81.5088 L -601.773 -80.9652 L -601.783 -80.9633 L -604.821 -80.206 L -604.831 -80.2035 L -607.808 -79.2361 L -607.818 -79.2329 L -610.721 -78.0602 L -610.73 -78.0562 L -613.544 -76.6839 L -613.553 -76.6793 L -616.264 -75.1141 L -616.274 -75.1089 L -618.869 -73.3583 L -618.878 -73.3525 L -621.344 -71.4251 L -621.353 -71.4187 L -623.679 -69.324 L -623.687 -69.317 L -625.861 -67.0651 L -625.869 -67.0576 L -627.881 -64.6595 L -627.888 -64.6515 L -629.728 -62.1188 L -629.734 -62.1104 L -631.393 -59.4556 L -631.398 -59.4467 L -632.868 -56.6826 L -632.873 -56.6734 L -634.146 -53.8136 L -634.15 -53.804 L -635.221 -50.8623 L -635.225 -50.8525 L -636.088 -47.8433 L -636.091 -47.8332 L -636.741 -44.7711 L -636.744 -44.7609 L -637.179 -41.6608 L -637.181 -41.6505 L -637.399 -38.5276 L -637.4 -38.5172 L -637.4 -35.3867 L -637.4 -35.3762 L -637.181 -32.2534 L -637.181 -32.2429 L -636.745 -29.1429 L -636.744 -29.1325 L -636.093 -26.0705 L -636.091 -26.0602 L -635.228 -23.051 L -635.225 -23.0409 L -634.154 -20.0992 L -634.15 -20.0894 L -632.877 -17.2296 L -632.873 -17.22 L -631.403 -14.4559 L -631.398 -14.4467 L -629.739 -11.7919 L -629.734 -11.783 L -627.894 -9.2504 L -627.888 -9.24193 L -627.881 -9.23391 L -625.869 -6.83582 L -625.861 -6.82829 L -623.687 -4.57641 L -623.679 -4.5694 L -621.353 -2.4747 L -618.886 -0.547382 L -618.878 -0.540936 L -616.282 1.20961 L -616.274 1.21546 L -613.563 2.78071 L -613.553 2.78594 L -610.74 4.15826 L -610.73 4.16285 L -607.828 5.33555 L -607.818 5.33947 L -604.841 6.30684 L -604.831 6.31008 L -601.793 7.06741 L -601.783 7.06994 L -598.7 7.61354 L -598.69 7.61536 L -595.577 7.94259 L -595.566 7.94368 L -592.438 8.05293 L -592.427 8.0533 L -323.327 8.0533 L -322.427 8.0533 L -319.299 7.94405 L -319.288 7.94368 L -316.175 7.61646 L -316.165 7.61536 L -313.082 7.07176 L -313.071 7.06994 L -310.034 6.31261 L -310.024 6.31008 L -307.046 5.3427 L -307.037 5.33947 L -304.134 4.16677 L -304.124 4.16285 L -301.311 2.79053 L -301.301 2.78594 L -298.59 1.2207 L -298.581 1.21546 L -295.986 -0.535081 L -295.977 -0.540936 L -293.51 -2.46825 L -293.502 -2.4747 L -293.494 -2.48171 L -291.168 -4.57641 L -291.161 -4.58394 L -288.986 -6.83582 L -288.979 -6.84384 L -286.967 -9.24193 L -285.127 -11.7745 L -285.121 -11.783 L -283.462 -14.4378 L -283.456 -14.4467 L -281.987 -17.2108 L -281.982 -17.22 L -280.708 -20.0798 L -280.704 -20.0894 L -279.633 -23.0311 L -279.63 -23.0409 L -278.767 -26.0502 L -278.764 -26.0602 L -278.113 -29.1223 L -278.111 -29.1325 L -277.675 -32.2326 L -277.674 -32.2429 L -277.456 -35.3658 L -277.455 -35.3762 L -277.455 -38.5067 L -277.455 -38.5172 L -277.673 -41.64 L -277.674 -41.6505 L -278.11 -44.7505 L -278.111 -44.7609 L -278.762 -47.8229 L -278.764 -47.8332 L -279.627 -50.8424 L -279.63 -50.8525 L -280.701 -53.7942 L -280.704 -53.804 L -281.977 -56.6638 L -281.982 -56.6734 L -283.451 -59.4375 L -283.456 -59.4467 L -285.115 -62.1015 L -285.121 -62.1104 L -286.961 -64.643 L -286.967 -64.6515 L -288.979 -67.0496 L -288.986 -67.0576 L -291.161 -69.3095 L -291.168 -69.317 z  M -416.113 -37.8325 L -416.113 -37.8322 L -415.967 -37.7377 L -415.967 -37.7373 L -415.84 -37.6189 L -415.839 -37.6185 L -415.735 -37.4798 L -415.734 -37.4793 L -415.655 -37.3245 L -415.655 -37.324 L -415.604 -37.1579 L -415.604 -37.1573 L -415.583 -36.9849 L -415.583 -36.9843 L -415.592 -36.8108 L -415.592 -36.8102 L -415.631 -36.641 L -415.631 -36.6404 L -415.699 -36.4805 L -415.699 -36.4799 L -415.699 -36.4794 L -415.794 -36.3337 L -415.794 -36.3333 L -415.913 -36.2062 L -415.913 -36.2058 L -416.052 -36.1013 L -416.053 -36.101 L -416.207 -36.0221 L -416.208 -36.0219 L -416.374 -35.9711 L -416.375 -35.971 L -416.547 -35.9498 L -416.548 -35.9498 L -416.721 -35.9589 L -416.722 -35.959 L -416.891 -35.9981 L -416.891 -35.9983 L -417.051 -36.0661 L -417.052 -36.0665 L -417.198 -36.161 L -417.198 -36.1614 L -417.325 -36.2799 L -417.325 -36.2804 L -417.43 -36.4191 L -417.43 -36.4196 L -417.509 -36.5744 L -417.509 -36.5749 L -417.56 -36.7411 L -417.56 -36.7416 L -417.582 -36.9141 L -417.581 -36.9147 L -417.572 -37.0881 L -417.572 -37.0887 L -417.533 -37.258 L -417.533 -37.2585 L -417.465 -37.4185 L -417.371 -37.5642 L -417.37 -37.5647 L -417.252 -37.6918 L -417.251 -37.6922 L -417.113 -37.7968 L -417.112 -37.7971 L -416.957 -37.876 L -416.957 -37.8763 L -416.791 -37.9271 L -416.79 -37.9273 L -416.618 -37.9485 L -416.617 -37.9486 L -416.444 -37.9395 L -416.443 -37.9395 L -416.274 -37.9005 L -416.273 -37.9003 z  M -498.398 -35.959 L -498.397 -35.9589 L -498.224 -35.9498 L -498.223 -35.9498 L -498.051 -35.971 L -498.05 -35.9711 L -497.884 -36.0219 L -497.883 -36.0221 L -497.729 -36.101 L -497.728 -36.1013 L -497.589 -36.2058 L -497.589 -36.2062 L -497.47 -36.3333 L -497.47 -36.3337 L -497.375 -36.4794 L -497.375 -36.4799 L -497.375 -36.4805 L -497.307 -36.6404 L -497.307 -36.641 L -497.268 -36.8102 L -497.268 -36.8108 L -497.259 -36.9843 L -497.259 -36.9849 L -497.28 -37.1573 L -497.28 -37.1579 L -497.331 -37.324 L -497.331 -37.3245 L -497.41 -37.4793 L -497.411 -37.4798 L -497.515 -37.6185 L -497.516 -37.6189 L -497.643 -37.7373 L -497.643 -37.7377 L -497.789 -37.8322 L -497.789 -37.8325 L -497.949 -37.9003 L -497.95 -37.9005 L -498.119 -37.9395 L -498.12 -37.9395 L -498.293 -37.9486 L -498.294 -37.9485 L -498.466 -37.9273 L -498.467 -37.9271 L -498.633 -37.8763 L -498.633 -37.876 L -498.788 -37.7971 L -498.789 -37.7968 L -498.927 -37.6922 L -498.928 -37.6918 L -499.046 -37.5647 L -499.047 -37.5642 L -499.141 -37.4185 L -499.209 -37.2585 L -499.209 -37.258 L -499.248 -37.0887 L -499.248 -37.0881 L -499.257 -36.9147 L -499.257 -36.9141 L -499.236 -36.7416 L -499.236 -36.7411 L -499.185 -36.5749 L -499.185 -36.5744 L -499.106 -36.4196 L -499.106 -36.4191 L -499.001 -36.2804 L -499.001 -36.2799 L -498.874 -36.1614 L -498.874 -36.161 L -498.728 -36.0665 L -498.727 -36.0661 L -498.567 -35.9983 L -498.567 -35.9981 z  M -308.567 -35.9981 L -308.398 -35.959 L -308.397 -35.9589 L -308.224 -35.9498 L -308.223 -35.9498 L -308.051 -35.971 L -308.05 -35.9711 L -307.884 -36.0219 L -307.883 -36.0221 L -307.729 -36.101 L -307.728 -36.1013 L -307.589 -36.2058 L -307.589 -36.2062 L -307.47 -36.3333 L -307.47 -36.3337 L -307.375 -36.4794 L -307.375 -36.4799 L -307.375 -36.4805 L -307.307 -36.6404 L -307.307 -36.641 L -307.268 -36.8102 L -307.268 -36.8108 L -307.259 -36.9843 L -307.259 -36.9849 L -307.28 -37.1573 L -307.28 -37.1579 L -307.331 -37.324 L -307.331 -37.3245 L -307.41 -37.4793 L -307.411 -37.4798 L -307.515 -37.6185 L -307.516 -37.6189 L -307.643 -37.7373 L -307.643 -37.7377 L -307.789 -37.8322 L -307.789 -37.8325 L -307.949 -37.9003 L -307.95 -37.9005 L -308.119 -37.9395 L -308.12 -37.9395 L -308.293 -37.9486 L -308.294 -37.9485 L -308.466 -37.9273 L -308.467 -37.9271 L -308.633 -37.8763 L -308.633 -37.876 L -308.788 -37.7971 L -308.789 -37.7968 L -308.927 -37.6922 L -308.928 -37.6918 L -309.046 -37.5647 L -309.047 -37.5642 L -309.141 -37.4185 L -309.209 -37.2585 L -309.209 -37.258 L -309.248 -37.0887 L -309.248 -37.0881 L -309.257 -36.9147 L -309.257 -36.9141 L -309.236 -36.7416 L -309.236 -36.7411 L -309.185 -36.5749 L -309.185 -36.5744 L -309.106 -36.4196 L -309.106 -36.4191 L -309.001 -36.2804 L -309.001 -36.2799 L -308.874 -36.1614 L -308.874 -36.161 L -308.728 -36.0665 L -308.727 -36.0661 L -308.567 -35.9983 z  M -448.354 -37.2456 L -448.25 -37.1069 L -448.25 -37.1064 L -448.171 -36.9516 L -448.171 -36.9511 L -448.12 -36.7849 L -448.12 -36.7844 L -448.098 -36.6119 L -448.098 -36.6114 L -448.108 -36.4379 L -448.108 -36.4373 L -448.147 -36.268 L -448.147 -36.2675 L -448.215 -36.1075 L -448.309 -35.9618 L -448.31 -35.9613 L -448.428 -35.8342 L -448.429 -35.8338 L -448.567 -35.7292 L -448.568 -35.7289 L -448.722 -35.65 L -448.723 -35.6497 L -448.889 -35.5989 L -448.89 -35.5987 L -449.062 -35.5775 L -449.063 -35.5774 L -449.236 -35.5865 L -449.237 -35.5865 L -449.406 -35.6256 L -449.407 -35.6257 L -449.567 -35.6935 L -449.567 -35.6938 L -449.713 -35.7883 L -449.713 -35.7887 L -449.84 -35.9071 L -449.841 -35.9075 L -449.945 -36.0462 L -449.946 -36.0467 L -450.025 -36.2015 L -450.025 -36.202 L -450.076 -36.3681 L -450.076 -36.3687 L -450.097 -36.5411 L -450.097 -36.5417 L -450.088 -36.7152 L -450.088 -36.7158 L -450.049 -36.8851 L -450.049 -36.8856 L -449.981 -37.0456 L -449.981 -37.0461 L -449.981 -37.0466 L -449.886 -37.1923 L -449.886 -37.1927 L -449.767 -37.3198 L -449.767 -37.3202 L -449.628 -37.4247 L -449.627 -37.425 L -449.473 -37.5039 L -449.472 -37.5041 L -449.306 -37.5549 L -449.305 -37.555 L -449.133 -37.5762 L -449.132 -37.5762 L -448.959 -37.5671 L -448.958 -37.567 L -448.789 -37.5279 L -448.788 -37.5277 L -448.629 -37.4599 L -448.628 -37.4595 L -448.482 -37.365 L -448.482 -37.3646 L -448.355 -37.2461 z  M -451.809 -46.6451 L -451.809 -46.5804 L -451.809 -27.2483 L -451.843 -27.2483 L -462.139 -27.2483 L -462.139 -27.313 L -462.139 -46.6451 L -462.105 -46.6451 z  M -574.046 -37.5647 L -574.047 -37.5642 L -574.141 -37.4185 L -574.209 -37.2585 L -574.209 -37.258 L -574.248 -37.0887 L -574.248 -37.0881 L -574.257 -36.9147 L -574.257 -36.9141 L -574.236 -36.7416 L -574.236 -36.7411 L -574.185 -36.5749 L -574.185 -36.5744 L -574.106 -36.4196 L -574.106 -36.4191 L -574.001 -36.2804 L -574.001 -36.2799 L -573.874 -36.1614 L -573.874 -36.161 L -573.728 -36.0665 L -573.727 -36.0661 L -573.567 -35.9983 L -573.567 -35.9981 L -573.398 -35.959 L -573.397 -35.9589 L -573.224 -35.9498 L -573.223 -35.9498 L -573.051 -35.971 L -573.05 -35.9711 L -572.884 -36.0219 L -572.883 -36.0221 L -572.729 -36.101 L -572.728 -36.1013 L -572.589 -36.2058 L -572.589 -36.2062 L -572.47 -36.3333 L -572.47 -36.3337 L -572.375 -36.4794 L -572.375 -36.4799 L -572.375 -36.4805 L -572.307 -36.6404 L -572.307 -36.641 L -572.268 -36.8102 L -572.268 -36.8108 L -572.259 -36.9843 L -572.259 -36.9849 L -572.28 -37.1573 L -572.28 -37.1579 L -572.331 -37.324 L -572.331 -37.3245 L -572.41 -37.4793 L -572.411 -37.4798 L -572.515 -37.6185 L -572.516 -37.6189 L -572.643 -37.7373 L -572.643 -37.7377 L -572.789 -37.8322 L -572.789 -37.8325 L -572.949 -37.9003 L -572.95 -37.9005 L -573.119 -37.9395 L -573.12 -37.9395 L -573.293 -37.9486 L -573.294 -37.9485 L -573.466 -37.9273 L -573.467 -37.9271 L -573.633 -37.8763 L -573.633 -37.876 L -573.788 -37.7971 L -573.789 -37.7968 L -573.927 -37.6922 L -573.928 -37.6918 z  M -384.046 -37.5647 L -384.047 -37.5642 L -384.141 -37.4185 L -384.209 -37.2585 L -384.209 -37.258 L -384.248 -37.0887 L -384.248 -37.0881 L -384.257 -36.9147 L -384.257 -36.9141 L -384.236 -36.7416 L -384.236 -36.7411 L -384.185 -36.5749 L -384.185 -36.5744 L -384.106 -36.4196 L -384.106 -36.4191 L -384.001 -36.2804 L -384.001 -36.2799 L -383.874 -36.1614 L -383.874 -36.161 L -383.728 -36.0665 L -383.727 -36.0661 L -383.567 -35.9983 L -383.567 -35.9981 L -383.398 -35.959 L -383.397 -35.9589 L -383.224 -35.9498 L -383.223 -35.9498 L -383.051 -35.971 L -383.05 -35.9711 L -382.884 -36.0219 L -382.883 -36.0221 L -382.729 -36.101 L -382.728 -36.1013 L -382.589 -36.2058 L -382.589 -36.2062 L -382.47 -36.3333 L -382.47 -36.3337 L -382.375 -36.4794 L -382.375 -36.4799 L -382.375 -36.4805 L -382.307 -36.6404 L -382.307 -36.641 L -382.268 -36.8102 L -382.268 -36.8108 L -382.259 -36.9843 L -382.259 -36.9849 L -382.28 -37.1573 L -382.28 -37.1579 L -382.331 -37.324 L -382.331 -37.3245 L -382.41 -37.4793 L -382.411 -37.4798 L -382.515 -37.6185 L -382.516 -37.6189 L -382.643 -37.7373 L -382.643 -37.7377 L -382.789 -37.8322 L -382.789 -37.8325 L -382.949 -37.9003 L -382.95 -37.9005 L -383.119 -37.9395 L -383.12 -37.9395 L -383.293 -37.9486 L -383.294 -37.9485 L -383.466 -37.9273 L -383.467 -37.9271 L -383.633 -37.8763 L -383.633 -37.876 L -383.788 -37.7971 L -383.789 -37.7968 L -383.927 -37.6922 L -383.928 -37.6918 z  M -532.37 -37.5647 L -532.371 -37.5642 L -532.465 -37.4185 L -532.533 -37.2585 L -532.533 -37.258 L -532.572 -37.0887 L -532.572 -37.0881 L -532.581 -36.9147 L -532.582 -36.9141 L -532.56 -36.7416 L -532.56 -36.7411 L -532.509 -36.5749 L -532.509 -36.5744 L -532.43 -36.4196 L -532.43 -36.4191 L -532.325 -36.2804 L -532.325 -36.2799 L -532.198 -36.1614 L -532.198 -36.161 L -532.052 -36.0665 L -532.051 -36.0661 L -531.891 -35.9983 L -531.891 -35.9981 L -531.722 -35.959 L -531.721 -35.9589 L -531.548 -35.9498 L -531.547 -35.9498 L -531.375 -35.971 L -531.374 -35.9711 L -531.208 -36.0219 L -531.207 -36.0221 L -531.053 -36.101 L -531.052 -36.1013 L -530.913 -36.2058 L -530.913 -36.2062 L -530.794 -36.3333 L -530.794 -36.3337 L -530.699 -36.4794 L -530.699 -36.4799 L -530.699 -36.4805 L -530.631 -36.6404 L -530.631 -36.641 L -530.592 -36.8102 L -530.592 -36.8108 L -530.583 -36.9843 L -530.583 -36.9849 L -530.604 -37.1573 L -530.604 -37.1579 L -530.655 -37.324 L -530.655 -37.3245 L -530.734 -37.4793 L -530.735 -37.4798 L -530.839 -37.6185 L -530.84 -37.6189 L -530.967 -37.7373 L -530.967 -37.7377 L -531.113 -37.8322 L -531.113 -37.8325 L -531.273 -37.9003 L -531.274 -37.9005 L -531.443 -37.9395 L -531.444 -37.9395 L -531.617 -37.9486 L -531.618 -37.9485 L -531.79 -37.9273 L -531.791 -37.9271 L -531.957 -37.8763 L -531.957 -37.876 L -532.112 -37.7971 L -532.113 -37.7968 L -532.251 -37.6922 L -532.252 -37.6918 z  M -342.37 -37.5647 L -342.371 -37.5642 L -342.465 -37.4185 L -342.533 -37.2585 L -342.533 -37.258 L -342.572 -37.0887 L -342.572 -37.0881 L -342.581 -36.9147 L -342.582 -36.9141 L -342.56 -36.7416 L -342.56 -36.7411 L -342.509 -36.5749 L -342.509 -36.5744 L -342.43 -36.4196 L -342.43 -36.4191 L -342.325 -36.2804 L -342.325 -36.2799 L -342.198 -36.1614 L -342.198 -36.161 L -342.052 -36.0665 L -342.051 -36.0661 L -341.891 -35.9983 L -341.891 -35.9981 L -341.722 -35.959 L -341.721 -35.9589 L -341.548 -35.9498 L -341.547 -35.9498 L -341.375 -35.971 L -341.374 -35.9711 L -341.208 -36.0219 L -341.207 -36.0221 L -341.053 -36.101 L -341.052 -36.1013 L -340.913 -36.2058 L -340.913 -36.2062 L -340.794 -36.3333 L -340.794 -36.3337 L -340.699 -36.4794 L -340.699 -36.4799 L -340.699 -36.4805 L -340.631 -36.6404 L -340.631 -36.641 L -340.592 -36.8102 L -340.592 -36.8108 L -340.583 -36.9843 L -340.583 -36.9849 L -340.604 -37.1573 L -340.604 -37.1579 L -340.655 -37.324 L -340.655 -37.3245 L -340.734 -37.4793 L -340.735 -37.4798 L -340.839 -37.6185 L -340.84 -37.6189 L -340.967 -37.7373 L -340.967 -37.7377 L -341.113 -37.8322 L -341.113 -37.8325 L -341.273 -37.9003 L -341.274 -37.9005 L -341.443 -37.9395 L -341.444 -37.9395 L -341.617 -37.9486 L -341.618 -37.9485 L -341.79 -37.9273 L -341.791 -37.9271 L -341.957 -37.8763 L -341.957 -37.876 L -342.112 -37.7971 L -342.113 -37.7968 L -342.251 -37.6922 L -342.252 -37.6918 z  M -524.927 -17.08 L -524.927 -56.9467 L -524.861 -56.9467 L -504.927 -56.9467 L -504.927 -56.8134 L -504.927 -16.9467 L -504.994 -16.9467 L -524.927 -16.9467 z  M -334.927 -17.08 L -334.927 -56.9467 L -334.861 -56.9467 L -314.927 -56.9467 L -314.927 -56.8134 L -314.927 -16.9467 L -314.994 -16.9467 L -334.927 -16.9467 z  M -599.927 -17.08 L -599.927 -56.9467 L -599.861 -56.9467 L -579.927 -56.9467 L -579.927 -56.8134 L -579.927 -16.9467 L -579.994 -16.9467 L -599.927 -16.9467 z  M -409.927 -17.08 L -409.927 -56.9467 L -409.861 -56.9467 L -389.927 -56.9467 L -389.927 -56.8134 L -389.927 -16.9467 L -389.994 -16.9467 L -409.927 -16.9467 z  " fill-rule="nonzero"></path></svg>