<?xml version="1.0"?>
<!-- Created with xTool Creative Space (https://www.xtool.com/pages/software) -->
<svg xmlns="http://www.w3.org/2000/svg" xmlns:xlink="http://www.w3.org/1999/xlink" xmlns:xcs="https://www.xtool.com/pages/software" version="1.1" preserveAspectRatio="xMinYMin meet" width="318.15918809352127mm" height="318.15918809352115mm" viewBox="1.5035584215978375 -13.66037423405379 318.15918809352127 318.15918809352115" xcs:version="2.2.23"><style>svg * { vector-effect: non-scaling-stroke; stroke-width: 1px; }</style>
<path transform="matrix(0.707107,-0.707107,0.707107,0.707107,510.158506,-151.905609)" stroke="#2366ff" fill="none" d="M -616.604 -66.2633 L -614.297 -68.0221 L -614.289 -68.028 L -611.854 -69.6051 L -611.846 -69.6103 L -609.297 -70.9964 L -609.289 -71.001 L -606.641 -72.1878 L -606.632 -72.1918 L -603.902 -73.1725 L -603.893 -73.1758 L -601.095 -73.9446 L -601.086 -73.9471 L -598.237 -74.4995 L -598.228 -74.5014 L -595.346 -74.8341 L -595.336 -74.8352 L -592.437 -74.9463 L -592.427 -74.9467 L -462.861 -74.9467 L -462.427 -74.9467 L -462.427 -74.97 L -462.427 -81.9467 L -591.994 -81.9467 L -592.427 -81.9467 L -595.556 -81.8374 L -595.566 -81.8371 L -598.68 -81.5099 L -598.69 -81.5088 L -601.773 -80.9652 L -601.783 -80.9633 L -604.821 -80.206 L -604.831 -80.2035 L -607.808 -79.2361 L -607.818 -79.2329 L -610.721 -78.0602 L -610.73 -78.0562 L -613.544 -76.6839 L -613.553 -76.6793 L -616.264 -75.1141 L -616.274 -75.1089 L -618.869 -73.3583 L -618.878 -73.3525 L -621.344 -71.4251 L -621.353 -71.4187 L -623.679 -69.324 L -623.687 -69.317 L -625.861 -67.0651 L -625.869 -67.0576 L -627.881 -64.6595 L -627.888 -64.6515 L -629.728 -62.1188 L -629.734 -62.1104 L -631.393 -59.4556 L -631.398 -59.4467 L -632.868 -56.6826 L -632.873 -56.6734 L -634.146 -53.8136 L -634.15 -53.804 L -635.221 -50.8623 L -635.225 -50.8525 L -636.088 -47.8433 L -636.091 -47.8332 L -636.741 -44.7711 L -636.744 -44.7609 L -637.179 -41.6608 L -637.181 -41.6505 L -637.399 -38.5276 L -637.4 -38.5172 L -637.4 -35.3867 L -637.4 -35.3762 L -637.181 -32.2534 L -637.181 -32.2429 L -636.745 -29.1429 L -636.744 -29.1325 L -636.093 -26.0705 L -636.091 -26.0602 L -635.228 -23.051 L -635.225 -23.0409 L -634.154 -20.0992 L -634.15 -20.0894 L -632.877 -17.2296 L -632.873 -17.22 L -631.403 -14.4559 L -631.398 -14.4467 L -629.739 -11.7919 L -629.734 -11.783 L -627.894 -9.2504 L -627.888 -9.24193 L -627.881 -9.23391 L -625.869 -6.83582 L -625.861 -6.82829 L -623.687 -4.57641 L -623.679 -4.5694 L -621.353 -2.4747 L -618.886 -0.547382 L -618.878 -0.540936 L -616.282 1.20961 L -616.274 1.21546 L -613.563 2.78071 L -613.553 2.78594 L -610.74 4.15826 L -610.73 4.16285 L -607.828 5.33555 L -607.818 5.33947 L -604.841 6.30684 L -604.831 6.31008 L -601.793 7.06741 L -601.783 7.06994 L -598.7 7.61354 L -598.69 7.61536 L -595.577 7.94259 L -595.566 7.94368 L -592.438 8.05293 L -592.427 8.0533 L -323.327 8.0533 L -322.427 8.0533 L -319.299 7.94405 L -319.288 7.94368 L -316.175 7.61646 L -316.165 7.61536 L -313.082 7.07176 L -313.071 7.06994 L -310.034 6.31261 L -310.024 6.31008 L -307.046 5.3427 L -307.037 5.33947 L -304.134 4.16677 L -304.124 4.16285 L -301.311 2.79053 L -301.301 2.78594 L -298.59 1.2207 L -298.581 1.21546 L -295.986 -0.535081 L -295.977 -0.540936 L -293.51 -2.46825 L -293.502 -2.4747 L -293.494 -2.48171 L -291.168 -4.57641 L -291.161 -4.58394 L -288.986 -6.83582 L -288.979 -6.84384 L -286.967 -9.24193 L -285.127 -11.7746 L -285.121 -11.783 L -283.462 -14.4378 L -283.456 -14.4467 L -281.987 -17.2108 L -281.982 -17.22 L -280.708 -20.0798 L -280.704 -20.0894 L -279.633 -23.0311 L -279.63 -23.0409 L -278.767 -26.0502 L -278.764 -26.0602 L -278.113 -29.1223 L -278.111 -29.1325 L -277.675 -32.2326 L -277.674 -32.2429 L -277.456 -35.3658 L -277.455 -35.3762 L -277.455 -38.5067 L -277.455 -38.5172 L -277.673 -41.64 L -277.674 -41.6505 L -278.11 -44.7505 L -278.111 -44.7609 L -278.762 -47.8229 L -278.764 -47.8332 L -279.627 -50.8424 L -279.63 -50.8525 L -280.701 -53.7942 L -280.704 -53.804 L -281.977 -56.6638 L -281.982 -56.6734 L -283.451 -59.4375 L -283.456 -59.4467 L -285.115 -62.1015 L -285.121 -62.1104 L -286.961 -64.643 L -286.967 -64.6515 L -288.979 -67.0496 L -288.986 -67.0576 L -291.161 -69.3095 L -291.168 -69.317 L -293.494 -71.4117 L -293.502 -71.4187 L -295.969 -73.346 L -295.977 -73.3525 L -298.572 -75.103 L -298.581 -75.1089 L -301.292 -76.6741 L -301.301 -76.6793 L -304.115 -78.0517 L -304.124 -78.0562 L -307.027 -79.2289 L -307.037 -79.2329 L -310.014 -80.2002 L -310.024 -80.2035 L -313.061 -80.9608 L -313.071 -80.9633 L -316.154 -81.5069 L -316.165 -81.5088 L -319.278 -81.836 L -319.288 -81.8371 L -322.417 -81.9463 L -322.427 -81.9467 L -451.994 -81.9467 L -452.427 -81.9467 L -452.427 -81.9234 L -452.427 -74.9467 L -322.861 -74.9467 L -322.427 -74.9467 L -319.528 -74.8356 L -319.519 -74.8352 L -316.636 -74.5025 L -316.627 -74.5014 L -313.779 -73.949 L -313.769 -73.9471 L -310.971 -73.1783 L -310.962 -73.1758 L -308.232 -72.1951 L -308.222 -72.1918 L -305.575 -71.005 L -305.566 -71.001 L -303.017 -69.615 L -303.009 -69.6103 L -300.573 -68.0333 L -300.565 -68.028 L -298.258 -66.2692 L -298.25 -66.2633 L -296.084 -64.333 L -296.077 -64.3265 L -294.065 -62.2361 L -294.058 -62.2291 L -292.212 -59.9908 L -292.206 -59.9833 L -290.537 -57.6102 L -290.532 -57.6023 L -289.049 -55.1084 L -289.044 -55.1001 L -287.757 -52.5 L -287.752 -52.4913 L -286.668 -49.8003 L -286.664 -49.7913 L -285.789 -47.0252 L -285.786 -47.016 L -285.125 -44.191 L -285.123 -44.1816 L -284.68 -41.3143 L -284.678 -41.3047 L -284.456 -38.4119 L -284.455 -38.4022 L -284.455 -35.5009 L -284.455 -35.4912 L -284.677 -32.5984 L -284.678 -32.5887 L -285.121 -29.7214 L -285.123 -29.7118 L -285.784 -26.8869 L -285.786 -26.8774 L -286.661 -24.1113 L -286.664 -24.1021 L -287.749 -21.4111 L -287.752 -21.4021 L -289.04 -18.802 L -289.044 -18.7933 L -290.527 -16.2995 L -290.532 -16.2911 L -292.201 -13.9181 L -292.206 -13.9101 L -294.052 -11.6718 L -294.058 -11.6643 L -296.07 -9.57387 L -296.077 -9.56688 L -298.243 -7.63657 L -298.25 -7.63011 L -300.558 -5.87127 L -300.565 -5.86538 L -303.001 -4.28833 L -303.009 -4.28306 L -305.558 -2.89705 L -305.566 -2.89241 L -308.214 -1.70558 L -308.222 -1.70161 L -310.953 -0.720918 L -310.962 -0.717638 L -313.76 0.0511543 L -313.769 0.0537255 L -316.617 0.606108 L -316.627 0.607955 L -319.509 0.940687 L -319.519 0.9418 L -322.418 1.05293 L -322.427 1.0533 L -591.527 1.0533 L -592.427 1.0533 L -595.326 0.942171 L -595.336 0.9418 L -598.218 0.609068 L -598.228 0.607955 L -601.076 0.0555729 L -601.086 0.0537255 L -603.883 -0.715067 L -603.893 -0.717638 L -606.623 -1.69833 L -606.632 -1.70161 L -609.28 -2.88844 L -609.289 -2.89241 L -611.837 -4.27842 L -611.846 -4.28306 L -614.281 -5.86011 L -614.289 -5.86538 L -616.597 -7.62423 L -616.604 -7.63011 L -618.77 -9.56042 L -618.778 -9.56688 L -620.79 -11.6573 L -620.796 -11.6643 L -622.642 -13.9026 L -622.648 -13.9101 L -624.318 -16.2832 L -624.323 -16.2911 L -625.806 -18.785 L -625.811 -18.7933 L -627.098 -21.3934 L -627.102 -21.4021 L -628.187 -24.0931 L -628.191 -24.1021 L -629.066 -26.8682 L -629.069 -26.8774 L -629.73 -29.7024 L -629.732 -29.7118 L -630.175 -32.5791 L -630.176 -32.5887 L -630.399 -35.4815 L -630.399 -35.4912 L -630.399 -38.3925 L -630.399 -38.4022 L -630.177 -41.295 L -630.176 -41.3047 L -629.734 -44.172 L -629.732 -44.1816 L -629.071 -47.0065 L -629.069 -47.016 L -628.193 -49.7821 L -628.191 -49.7913 L -627.106 -52.4823 L -627.102 -52.4913 L -625.815 -55.0914 L -625.811 -55.1001 L -624.328 -57.5939 L -624.323 -57.6023 L -622.654 -59.9753 L -622.648 -59.9833 L -620.802 -62.2216 L -620.796 -62.2291 L -618.784 -64.3195 L -618.778 -64.3265 L -616.612 -66.2568 z  " fill-rule="nonzero"></path></svg>