<?xml version="1.0"?>
<!-- Created with xTool Creative Space (https://www.xtool.com/pages/software) -->
<svg xmlns="http://www.w3.org/2000/svg" xmlns:xlink="http://www.w3.org/1999/xlink" xmlns:xcs="https://www.xtool.com/pages/software" version="1.1" preserveAspectRatio="xMinYMin meet" width="271.2949829101566mm" height="70.28378304142714mm" viewBox="5.397244262500401 8.146641195945904 271.2949829101566 70.28378304142714" xcs:version="2.2.23"><style>svg * { vector-effect: non-scaling-stroke; stroke-width: 1px; }</style>
<path transform="matrix(1,0,0,1,-252.747821,-69.261467)" stroke="#a958ff" fill="none" d="M 260.323 122.650 V 105.450 M 261.823 102.450 V 119.650 M 263.323 122.650 V 105.450 M 264.823 102.450 V 119.650 M 266.323 122.650 V 105.450 M 267.823 102.450 V 119.650 M 269.323 122.650 V 105.450 M 270.823 102.450 V 119.650 M 272.323 122.650 V 105.450 M 273.823 102.450 V 119.650 M 275.323 122.650 V 105.450 M 276.823 102.450 V 119.650 M 278.323 122.650 V 105.450 M 279.823 102.450 V 119.650 M 281.323 122.650 V 105.450 M 282.823 102.450 V 119.650 M 284.323 122.650 V 105.450 M 285.823 102.450 V 119.650 M 287.323 122.650 V 105.450 M 288.823 102.450 V 119.650 M 290.323 122.650 V 105.450 M 291.823 102.450 V 119.650 M 293.323 122.650 V 105.450 M 294.823 102.450 V 119.650 M 296.323 122.650 V 105.450 M 297.823 102.450 V 119.650 M 299.323 122.650 V 105.450 M 300.823 102.450 V 119.650 M 302.323 122.650 V 105.450 M 303.823 102.450 V 119.650 M 305.323 122.650 V 105.450 M 306.823 102.450 V 119.650 M 308.323 122.650 V 105.450 M 309.823 102.450 V 119.650 M 311.323 122.650 V 105.450 M 312.823 102.450 V 119.650 M 314.323 122.650 V 105.450 M 315.823 102.450 V 119.650 M 317.323 122.650 V 105.450 M 318.823 102.450 V 119.650 M 320.323 122.650 V 105.450 M 321.823 102.450 V 119.650 M 323.323 122.650 V 105.450 M 324.823 102.450 V 119.650 M 326.323 122.650 V 105.450 M 327.823 102.450 V 119.650 M 329.323 122.650 V 105.450 M 330.823 102.450 V 119.650 M 332.323 122.650 V 105.450 M 333.823 102.450 V 119.650 M 335.323 122.650 V 105.450 M 336.823 102.450 V 119.650 M 338.323 122.650 V 105.450 M 339.823 102.450 V 119.650 M 341.323 122.650 V 105.450 M 342.823 102.450 V 119.650 M 344.323 122.650 V 105.450 M 345.823 102.450 V 119.650 M 347.323 122.650 V 105.450 M 348.823 102.450 V 119.650 M 350.323 122.650 V 105.450 M 351.823 102.450 V 119.650 M 353.323 122.650 V 105.450 M 354.823 102.450 V 119.650 M 356.323 122.650 V 105.450 M 357.823 102.450 V 119.650 M 359.323 122.650 V 105.450 M 360.823 102.450 V 119.650 M 362.323 122.650 V 105.450 M 363.823 102.450 V 119.650 M 365.323 122.650 V 105.450 M 366.823 102.450 V 119.650 M 368.323 122.650 V 105.450 M 369.823 102.450 V 119.650 M 371.323 122.650 V 105.450 M 372.823 102.450 V 119.650 M 374.323 122.650 V 105.450 M 375.823 102.450 V 119.650 M 377.323 122.650 V 105.450 M 378.823 102.450 V 119.650 M 380.323 122.650 V 105.450 M 381.823 102.450 V 119.650 M 383.323 122.650 V 105.450 M 384.823 102.450 V 119.650 M 386.323 122.650 V 105.450 M 387.823 102.450 V 119.650" fill-rule="nonzero"></path><path transform="matrix(-1,1.22465e-16,-1.22465e-16,-1,534.837292,155.838532)" stroke="#a958ff" fill="none" d="M 260.323 122.650 V 105.450 M 261.823 102.450 V 119.650 M 263.323 122.650 V 105.450 M 264.823 102.450 V 119.650 M 266.323 122.650 V 105.450 M 267.823 102.450 V 119.650 M 269.323 122.650 V 105.450 M 270.823 102.450 V 119.650 M 272.323 122.650 V 105.450 M 273.823 102.450 V 119.650 M 275.323 122.650 V 105.450 M 276.823 102.450 V 119.650 M 278.323 122.650 V 105.450 M 279.823 102.450 V 119.650 M 281.323 122.650 V 105.450 M 282.823 102.450 V 119.650 M 284.323 122.650 V 105.450 M 285.823 102.450 V 119.650 M 287.323 122.650 V 105.450 M 288.823 102.450 V 119.650 M 290.323 122.650 V 105.450 M 291.823 102.450 V 119.650 M 293.323 122.650 V 105.450 M 294.823 102.450 V 119.650 M 296.323 122.650 V 105.450 M 297.823 102.450 V 119.650 M 299.323 122.650 V 105.450 M 300.823 102.450 V 119.650 M 302.323 122.650 V 105.450 M 303.823 102.450 V 119.650 M 305.323 122.650 V 105.450 M 306.823 102.450 V 119.650 M 308.323 122.650 V 105.450 M 309.823 102.450 V 119.650 M 311.323 122.650 V 105.450 M 312.823 102.450 V 119.650 M 314.323 122.650 V 105.450 M 315.823 102.450 V 119.650 M 317.323 122.650 V 105.450 M 318.823 102.450 V 119.650 M 320.323 122.650 V 105.450 M 321.823 102.450 V 119.650 M 323.323 122.650 V 105.450 M 324.823 102.450 V 119.650 M 326.323 122.650 V 105.450 M 327.823 102.450 V 119.650 M 329.323 122.650 V 105.450 M 330.823 102.450 V 119.650 M 332.323 122.650 V 105.450 M 333.823 102.450 V 119.650 M 335.323 122.650 V 105.450 M 336.823 102.450 V 119.650 M 338.323 122.650 V 105.450 M 339.823 102.450 V 119.650 M 341.323 122.650 V 105.450 M 342.823 102.450 V 119.650 M 344.323 122.650 V 105.450 M 345.823 102.450 V 119.650 M 347.323 122.650 V 105.450 M 348.823 102.450 V 119.650 M 350.323 122.650 V 105.450 M 351.823 102.450 V 119.650 M 353.323 122.650 V 105.450 M 354.823 102.450 V 119.650 M 356.323 122.650 V 105.450 M 357.823 102.450 V 119.650 M 359.323 122.650 V 105.450 M 360.823 102.450 V 119.650 M 362.323 122.650 V 105.450 M 363.823 102.450 V 119.650 M 365.323 122.650 V 105.450 M 366.823 102.450 V 119.650 M 368.323 122.650 V 105.450 M 369.823 102.450 V 119.650 M 371.323 122.650 V 105.450 M 372.823 102.450 V 119.650 M 374.323 122.650 V 105.450 M 375.823 102.450 V 119.650 M 377.323 122.650 V 105.450 M 378.823 102.450 V 119.650 M 380.323 122.650 V 105.450 M 381.823 102.450 V 119.650 M 383.323 122.650 V 105.450 M 384.823 102.450 V 119.650 M 386.323 122.650 V 105.450 M 387.823 102.450 V 119.650" fill-rule="nonzero"></path><path transform="matrix(1,0,0,1,-159.965762,-54.344013)" stroke="#000000" fill="none" d="M297.251, 107.633L165.48, 107.633L165.48, 87.633L297.251, 87.633Z" fill-rule="nonzero"></path><path transform="matrix(-1,1.22465e-16,-1.22465e-16,-1,442.055234,140.921079)" stroke="#000000" fill="none" d="M297.251, 107.633L165.48, 107.633L165.48, 87.633L297.251, 87.633Z" fill-rule="nonzero"></path><path transform="matrix(1,0,0,1,-159.965762,-50.596569)" stroke="#000000" fill="none" d="M436.658, 129.027L165.363, 129.027L165.363, 109.027L436.658, 109.027Z" fill-rule="nonzero"></path><path transform="matrix(-1,1.22465e-16,-1.22465e-16,-1,442.055234,137.173634)" stroke="#000000" fill="none" d="M436.658, 129.027L165.363, 129.027L165.363, 109.027L436.658, 109.027Z" fill-rule="nonzero"></path></svg>