<?xml version="1.0" standalone="no"?>
<svg xmlns="http://www.w3.org/2000/svg" width="2000" height="2000" viewBox="0 0 2000 2000"><defs><clipPath id="clip-path-dot-color"><rect x="101" y="597" width="62" height="62" transform="rotate(0,132,628)"/><rect x="101" y="659" width="62" height="62" transform="rotate(0,132,690)"/><rect x="101" y="721" width="62" height="62" transform="rotate(0,132,752)"/><rect x="101" y="1031" width="62" height="62" transform="rotate(0,132,1062)"/><rect x="101" y="1093" width="62" height="62" transform="rotate(0,132,1124)"/><rect x="101" y="1217" width="62" height="62" transform="rotate(0,132,1248)"/><rect x="163" y="597" width="62" height="62" transform="rotate(0,194,628)"/><rect x="163" y="659" width="62" height="62" transform="rotate(0,194,690)"/><rect x="163" y="783" width="62" height="62" transform="rotate(0,194,814)"/><rect x="163" y="907" width="62" height="62" transform="rotate(0,194,938)"/><rect x="163" y="969" width="62" height="62" transform="rotate(0,194,1000)"/><rect x="163" y="1217" width="62" height="62" transform="rotate(0,194,1248)"/><rect x="225" y="597" width="62" height="62" transform="rotate(0,256,628)"/><rect x="225" y="659" width="62" height="62" transform="rotate(0,256,690)"/><rect x="225" y="907" width="62" height="62" transform="rotate(0,256,938)"/><rect x="225" y="1031" width="62" height="62" transform="rotate(0,256,1062)"/><rect x="225" y="1217" width="62" height="62" transform="rotate(0,256,1248)"/><rect x="225" y="1279" width="62" height="62" transform="rotate(0,256,1310)"/><rect x="287" y="597" width="62" height="62" transform="rotate(0,318,628)"/><rect x="287" y="721" width="62" height="62" transform="rotate(0,318,752)"/><rect x="287" y="783" width="62" height="62" transform="rotate(0,318,814)"/><rect x="287" y="845" width="62" height="62" transform="rotate(0,318,876)"/><rect x="287" y="907" width="62" height="62" transform="rotate(0,318,938)"/><rect x="287" y="969" width="62" height="62" transform="rotate(0,318,1000)"/><rect x="287" y="1217" width="62" height="62" transform="rotate(0,318,1248)"/><rect x="349" y="597" width="62" height="62" transform="rotate(0,380,628)"/><rect x="349" y="659" width="62" height="62" transform="rotate(0,380,690)"/><rect x="349" y="783" width="62" height="62" transform="rotate(0,380,814)"/><rect x="349" y="907" width="62" height="62" transform="rotate(0,380,938)"/><rect x="349" y="969" width="62" height="62" transform="rotate(0,380,1000)"/><rect x="349" y="1093" width="62" height="62" transform="rotate(0,380,1124)"/><rect x="349" y="1279" width="62" height="62" transform="rotate(0,380,1310)"/><rect x="411" y="721" width="62" height="62" transform="rotate(0,442,752)"/><rect x="411" y="907" width="62" height="62" transform="rotate(0,442,938)"/><rect x="411" y="1031" width="62" height="62" transform="rotate(0,442,1062)"/><rect x="411" y="1155" width="62" height="62" transform="rotate(0,442,1186)"/><rect x="411" y="1279" width="62" height="62" transform="rotate(0,442,1310)"/><rect x="473" y="597" width="62" height="62" transform="rotate(0,504,628)"/><rect x="473" y="721" width="62" height="62" transform="rotate(0,504,752)"/><rect x="473" y="845" width="62" height="62" transform="rotate(0,504,876)"/><rect x="473" y="969" width="62" height="62" transform="rotate(0,504,1000)"/><rect x="473" y="1093" width="62" height="62" transform="rotate(0,504,1124)"/><rect x="473" y="1217" width="62" height="62" transform="rotate(0,504,1248)"/><rect x="473" y="1341" width="62" height="62" transform="rotate(0,504,1372)"/><rect x="535" y="597" width="62" height="62" transform="rotate(0,566,628)"/><rect x="535" y="659" width="62" height="62" transform="rotate(0,566,690)"/><rect x="535" y="783" width="62" height="62" transform="rotate(0,566,814)"/><rect x="535" y="1093" width="62" height="62" transform="rotate(0,566,1124)"/><rect x="535" y="1155" width="62" height="62" transform="rotate(0,566,1186)"/><rect x="535" y="1217" width="62" height="62" transform="rotate(0,566,1248)"/><rect x="597" y="163" width="62" height="62" transform="rotate(0,628,194)"/><rect x="597" y="225" width="62" height="62" transform="rotate(0,628,256)"/><rect x="597" y="349" width="62" height="62" transform="rotate(0,628,380)"/><rect x="597" y="473" width="62" height="62" transform="rotate(0,628,504)"/><rect x="597" y="535" width="62" height="62" transform="rotate(0,628,566)"/><rect x="597" y="659" width="62" height="62" transform="rotate(0,628,690)"/><rect x="597" y="783" width="62" height="62" transform="rotate(0,628,814)"/><rect x="597" y="845" width="62" height="62" transform="rotate(0,628,876)"/><rect x="597" y="1031" width="62" height="62" transform="rotate(0,628,1062)"/><rect x="597" y="1093" width="62" height="62" transform="rotate(0,628,1124)"/><rect x="597" y="1217" width="62" height="62" transform="rotate(0,628,1248)"/><rect x="597" y="1341" width="62" height="62" transform="rotate(0,628,1372)"/><rect x="597" y="1465" width="62" height="62" transform="rotate(0,628,1496)"/><rect x="597" y="1589" width="62" height="62" transform="rotate(0,628,1620)"/><rect x="597" y="1651" width="62" height="62" transform="rotate(0,628,1682)"/><rect x="597" y="1713" width="62" height="62" transform="rotate(0,628,1744)"/><rect x="597" y="1775" width="62" height="62" transform="rotate(0,628,1806)"/><rect x="597" y="1837" width="62" height="62" transform="rotate(0,628,1868)"/><rect x="659" y="101" width="62" height="62" transform="rotate(0,690,132)"/><rect x="659" y="225" width="62" height="62" transform="rotate(0,690,256)"/><rect x="659" y="287" width="62" height="62" transform="rotate(0,690,318)"/><rect x="659" y="349" width="62" height="62" transform="rotate(0,690,380)"/><rect x="659" y="597" width="62" height="62" transform="rotate(0,690,628)"/><rect x="659" y="783" width="62" height="62" transform="rotate(0,690,814)"/><rect x="659" y="845" width="62" height="62" transform="rotate(0,690,876)"/><rect x="659" y="969" width="62" height="62" transform="rotate(0,690,1000)"/><rect x="659" y="1031" width="62" height="62" transform="rotate(0,690,1062)"/><rect x="659" y="1093" width="62" height="62" transform="rotate(0,690,1124)"/><rect x="659" y="1217" width="62" height="62" transform="rotate(0,690,1248)"/><rect x="659" y="1279" width="62" height="62" transform="rotate(0,690,1310)"/><rect x="659" y="1651" width="62" height="62" transform="rotate(0,690,1682)"/><rect x="659" y="1837" width="62" height="62" transform="rotate(0,690,1868)"/><rect x="721" y="225" width="62" height="62" transform="rotate(0,752,256)"/><rect x="721" y="287" width="62" height="62" transform="rotate(0,752,318)"/><rect x="721" y="411" width="62" height="62" transform="rotate(0,752,442)"/><rect x="721" y="473" width="62" height="62" transform="rotate(0,752,504)"/><rect x="721" y="535" width="62" height="62" transform="rotate(0,752,566)"/><rect x="721" y="597" width="62" height="62" transform="rotate(0,752,628)"/><rect x="721" y="659" width="62" height="62" transform="rotate(0,752,690)"/><rect x="721" y="907" width="62" height="62" transform="rotate(0,752,938)"/><rect x="721" y="1031" width="62" height="62" transform="rotate(0,752,1062)"/><rect x="721" y="1093" width="62" height="62" transform="rotate(0,752,1124)"/><rect x="721" y="1217" width="62" height="62" transform="rotate(0,752,1248)"/><rect x="721" y="1527" width="62" height="62" transform="rotate(0,752,1558)"/><rect x="721" y="1589" width="62" height="62" transform="rotate(0,752,1620)"/><rect x="721" y="1775" width="62" height="62" transform="rotate(0,752,1806)"/><rect x="721" y="1837" width="62" height="62" transform="rotate(0,752,1868)"/><rect x="783" y="101" width="62" height="62" transform="rotate(0,814,132)"/><rect x="783" y="287" width="62" height="62" transform="rotate(0,814,318)"/><rect x="783" y="349" width="62" height="62" transform="rotate(0,814,380)"/><rect x="783" y="535" width="62" height="62" transform="rotate(0,814,566)"/><rect x="783" y="597" width="62" height="62" transform="rotate(0,814,628)"/><rect x="783" y="659" width="62" height="62" transform="rotate(0,814,690)"/><rect x="783" y="845" width="62" height="62" transform="rotate(0,814,876)"/><rect x="783" y="1031" width="62" height="62" transform="rotate(0,814,1062)"/><rect x="783" y="1093" width="62" height="62" transform="rotate(0,814,1124)"/><rect x="783" y="1155" width="62" height="62" transform="rotate(0,814,1186)"/><rect x="783" y="1217" width="62" height="62" transform="rotate(0,814,1248)"/><rect x="783" y="1341" width="62" height="62" transform="rotate(0,814,1372)"/><rect x="783" y="1403" width="62" height="62" transform="rotate(0,814,1434)"/><rect x="783" y="1465" width="62" height="62" transform="rotate(0,814,1496)"/><rect x="783" y="1589" width="62" height="62" transform="rotate(0,814,1620)"/><rect x="783" y="1651" width="62" height="62" transform="rotate(0,814,1682)"/><rect x="783" y="1775" width="62" height="62" transform="rotate(0,814,1806)"/><rect x="845" y="473" width="62" height="62" transform="rotate(0,876,504)"/><rect x="845" y="535" width="62" height="62" transform="rotate(0,876,566)"/><rect x="845" y="597" width="62" height="62" transform="rotate(0,876,628)"/><rect x="845" y="721" width="62" height="62" transform="rotate(0,876,752)"/><rect x="845" y="783" width="62" height="62" transform="rotate(0,876,814)"/><rect x="845" y="1031" width="62" height="62" transform="rotate(0,876,1062)"/><rect x="845" y="1155" width="62" height="62" transform="rotate(0,876,1186)"/><rect x="845" y="1217" width="62" height="62" transform="rotate(0,876,1248)"/><rect x="845" y="1465" width="62" height="62" transform="rotate(0,876,1496)"/><rect x="845" y="1527" width="62" height="62" transform="rotate(0,876,1558)"/><rect x="845" y="1651" width="62" height="62" transform="rotate(0,876,1682)"/><rect x="907" y="287" width="62" height="62" transform="rotate(0,938,318)"/><rect x="907" y="535" width="62" height="62" transform="rotate(0,938,566)"/><rect x="907" y="659" width="62" height="62" transform="rotate(0,938,690)"/><rect x="907" y="845" width="62" height="62" transform="rotate(0,938,876)"/><rect x="907" y="969" width="62" height="62" transform="rotate(0,938,1000)"/><rect x="907" y="1341" width="62" height="62" transform="rotate(0,938,1372)"/><rect x="907" y="1403" width="62" height="62" transform="rotate(0,938,1434)"/><rect x="907" y="1465" width="62" height="62" transform="rotate(0,938,1496)"/><rect x="907" y="1527" width="62" height="62" transform="rotate(0,938,1558)"/><rect x="969" y="101" width="62" height="62" transform="rotate(0,1000,132)"/><rect x="969" y="163" width="62" height="62" transform="rotate(0,1000,194)"/><rect x="969" y="225" width="62" height="62" transform="rotate(0,1000,256)"/><rect x="969" y="349" width="62" height="62" transform="rotate(0,1000,380)"/><rect x="969" y="473" width="62" height="62" transform="rotate(0,1000,504)"/><rect x="969" y="535" width="62" height="62" transform="rotate(0,1000,566)"/><rect x="969" y="597" width="62" height="62" transform="rotate(0,1000,628)"/><rect x="969" y="845" width="62" height="62" transform="rotate(0,1000,876)"/><rect x="969" y="969" width="62" height="62" transform="rotate(0,1000,1000)"/><rect x="969" y="1031" width="62" height="62" transform="rotate(0,1000,1062)"/><rect x="969" y="1093" width="62" height="62" transform="rotate(0,1000,1124)"/><rect x="969" y="1155" width="62" height="62" transform="rotate(0,1000,1186)"/><rect x="969" y="1465" width="62" height="62" transform="rotate(0,1000,1496)"/><rect x="969" y="1527" width="62" height="62" transform="rotate(0,1000,1558)"/><rect x="969" y="1713" width="62" height="62" transform="rotate(0,1000,1744)"/><rect x="969" y="1775" width="62" height="62" transform="rotate(0,1000,1806)"/><rect x="969" y="1837" width="62" height="62" transform="rotate(0,1000,1868)"/><rect x="1031" y="101" width="62" height="62" transform="rotate(0,1062,132)"/><rect x="1031" y="659" width="62" height="62" transform="rotate(0,1062,690)"/><rect x="1031" y="783" width="62" height="62" transform="rotate(0,1062,814)"/><rect x="1031" y="845" width="62" height="62" transform="rotate(0,1062,876)"/><rect x="1031" y="969" width="62" height="62" transform="rotate(0,1062,1000)"/><rect x="1031" y="1093" width="62" height="62" transform="rotate(0,1062,1124)"/><rect x="1031" y="1279" width="62" height="62" transform="rotate(0,1062,1310)"/><rect x="1031" y="1465" width="62" height="62" transform="rotate(0,1062,1496)"/><rect x="1031" y="1527" width="62" height="62" transform="rotate(0,1062,1558)"/><rect x="1031" y="1837" width="62" height="62" transform="rotate(0,1062,1868)"/><rect x="1093" y="101" width="62" height="62" transform="rotate(0,1124,132)"/><rect x="1093" y="225" width="62" height="62" transform="rotate(0,1124,256)"/><rect x="1093" y="411" width="62" height="62" transform="rotate(0,1124,442)"/><rect x="1093" y="473" width="62" height="62" transform="rotate(0,1124,504)"/><rect x="1093" y="783" width="62" height="62" transform="rotate(0,1124,814)"/><rect x="1093" y="845" width="62" height="62" transform="rotate(0,1124,876)"/><rect x="1093" y="969" width="62" height="62" transform="rotate(0,1124,1000)"/><rect x="1093" y="1341" width="62" height="62" transform="rotate(0,1124,1372)"/><rect x="1093" y="1403" width="62" height="62" transform="rotate(0,1124,1434)"/><rect x="1093" y="1465" width="62" height="62" transform="rotate(0,1124,1496)"/><rect x="1093" y="1651" width="62" height="62" transform="rotate(0,1124,1682)"/><rect x="1093" y="1837" width="62" height="62" transform="rotate(0,1124,1868)"/><rect x="1155" y="163" width="62" height="62" transform="rotate(0,1186,194)"/><rect x="1155" y="225" width="62" height="62" transform="rotate(0,1186,256)"/><rect x="1155" y="287" width="62" height="62" transform="rotate(0,1186,318)"/><rect x="1155" y="597" width="62" height="62" transform="rotate(0,1186,628)"/><rect x="1155" y="659" width="62" height="62" transform="rotate(0,1186,690)"/><rect x="1155" y="721" width="62" height="62" transform="rotate(0,1186,752)"/><rect x="1155" y="783" width="62" height="62" transform="rotate(0,1186,814)"/><rect x="1155" y="1031" width="62" height="62" transform="rotate(0,1186,1062)"/><rect x="1155" y="1279" width="62" height="62" transform="rotate(0,1186,1310)"/><rect x="1155" y="1341" width="62" height="62" transform="rotate(0,1186,1372)"/><rect x="1155" y="1465" width="62" height="62" transform="rotate(0,1186,1496)"/><rect x="1155" y="1651" width="62" height="62" transform="rotate(0,1186,1682)"/><rect x="1155" y="1775" width="62" height="62" transform="rotate(0,1186,1806)"/><rect x="1155" y="1837" width="62" height="62" transform="rotate(0,1186,1868)"/><rect x="1217" y="101" width="62" height="62" transform="rotate(0,1248,132)"/><rect x="1217" y="287" width="62" height="62" transform="rotate(0,1248,318)"/><rect x="1217" y="349" width="62" height="62" transform="rotate(0,1248,380)"/><rect x="1217" y="473" width="62" height="62" transform="rotate(0,1248,504)"/><rect x="1217" y="597" width="62" height="62" transform="rotate(0,1248,628)"/><rect x="1217" y="783" width="62" height="62" transform="rotate(0,1248,814)"/><rect x="1217" y="907" width="62" height="62" transform="rotate(0,1248,938)"/><rect x="1217" y="1155" width="62" height="62" transform="rotate(0,1248,1186)"/><rect x="1217" y="1403" width="62" height="62" transform="rotate(0,1248,1434)"/><rect x="1217" y="1527" width="62" height="62" transform="rotate(0,1248,1558)"/><rect x="1217" y="1589" width="62" height="62" transform="rotate(0,1248,1620)"/><rect x="1217" y="1651" width="62" height="62" transform="rotate(0,1248,1682)"/><rect x="1217" y="1713" width="62" height="62" transform="rotate(0,1248,1744)"/><rect x="1217" y="1775" width="62" height="62" transform="rotate(0,1248,1806)"/><rect x="1217" y="1837" width="62" height="62" transform="rotate(0,1248,1868)"/><rect x="1279" y="163" width="62" height="62" transform="rotate(0,1310,194)"/><rect x="1279" y="225" width="62" height="62" transform="rotate(0,1310,256)"/><rect x="1279" y="535" width="62" height="62" transform="rotate(0,1310,566)"/><rect x="1279" y="597" width="62" height="62" transform="rotate(0,1310,628)"/><rect x="1279" y="783" width="62" height="62" transform="rotate(0,1310,814)"/><rect x="1279" y="969" width="62" height="62" transform="rotate(0,1310,1000)"/><rect x="1279" y="1031" width="62" height="62" transform="rotate(0,1310,1062)"/><rect x="1279" y="1155" width="62" height="62" transform="rotate(0,1310,1186)"/><rect x="1279" y="1279" width="62" height="62" transform="rotate(0,1310,1310)"/><rect x="1279" y="1341" width="62" height="62" transform="rotate(0,1310,1372)"/><rect x="1279" y="1465" width="62" height="62" transform="rotate(0,1310,1496)"/><rect x="1279" y="1527" width="62" height="62" transform="rotate(0,1310,1558)"/><rect x="1279" y="1775" width="62" height="62" transform="rotate(0,1310,1806)"/><rect x="1279" y="1837" width="62" height="62" transform="rotate(0,1310,1868)"/><rect x="1341" y="101" width="62" height="62" transform="rotate(0,1372,132)"/><rect x="1341" y="473" width="62" height="62" transform="rotate(0,1372,504)"/><rect x="1341" y="535" width="62" height="62" transform="rotate(0,1372,566)"/><rect x="1341" y="597" width="62" height="62" transform="rotate(0,1372,628)"/><rect x="1341" y="721" width="62" height="62" transform="rotate(0,1372,752)"/><rect x="1341" y="783" width="62" height="62" transform="rotate(0,1372,814)"/><rect x="1341" y="845" width="62" height="62" transform="rotate(0,1372,876)"/><rect x="1341" y="1093" width="62" height="62" transform="rotate(0,1372,1124)"/><rect x="1341" y="1155" width="62" height="62" transform="rotate(0,1372,1186)"/><rect x="1341" y="1341" width="62" height="62" transform="rotate(0,1372,1372)"/><rect x="1341" y="1403" width="62" height="62" transform="rotate(0,1372,1434)"/><rect x="1341" y="1465" width="62" height="62" transform="rotate(0,1372,1496)"/><rect x="1341" y="1527" width="62" height="62" transform="rotate(0,1372,1558)"/><rect x="1341" y="1589" width="62" height="62" transform="rotate(0,1372,1620)"/><rect x="1341" y="1651" width="62" height="62" transform="rotate(0,1372,1682)"/><rect x="1403" y="597" width="62" height="62" transform="rotate(0,1434,628)"/><rect x="1403" y="659" width="62" height="62" transform="rotate(0,1434,690)"/><rect x="1403" y="845" width="62" height="62" transform="rotate(0,1434,876)"/><rect x="1403" y="969" width="62" height="62" transform="rotate(0,1434,1000)"/><rect x="1403" y="1155" width="62" height="62" transform="rotate(0,1434,1186)"/><rect x="1403" y="1341" width="62" height="62" transform="rotate(0,1434,1372)"/><rect x="1403" y="1589" width="62" height="62" transform="rotate(0,1434,1620)"/><rect x="1465" y="597" width="62" height="62" transform="rotate(0,1496,628)"/><rect x="1465" y="659" width="62" height="62" transform="rotate(0,1496,690)"/><rect x="1465" y="721" width="62" height="62" transform="rotate(0,1496,752)"/><rect x="1465" y="907" width="62" height="62" transform="rotate(0,1496,938)"/><rect x="1465" y="969" width="62" height="62" transform="rotate(0,1496,1000)"/><rect x="1465" y="1217" width="62" height="62" transform="rotate(0,1496,1248)"/><rect x="1465" y="1279" width="62" height="62" transform="rotate(0,1496,1310)"/><rect x="1465" y="1341" width="62" height="62" transform="rotate(0,1496,1372)"/><rect x="1465" y="1465" width="62" height="62" transform="rotate(0,1496,1496)"/><rect x="1465" y="1589" width="62" height="62" transform="rotate(0,1496,1620)"/><rect x="1465" y="1713" width="62" height="62" transform="rotate(0,1496,1744)"/><rect x="1465" y="1775" width="62" height="62" transform="rotate(0,1496,1806)"/><rect x="1465" y="1837" width="62" height="62" transform="rotate(0,1496,1868)"/><rect x="1527" y="659" width="62" height="62" transform="rotate(0,1558,690)"/><rect x="1527" y="907" width="62" height="62" transform="rotate(0,1558,938)"/><rect x="1527" y="1093" width="62" height="62" transform="rotate(0,1558,1124)"/><rect x="1527" y="1155" width="62" height="62" transform="rotate(0,1558,1186)"/><rect x="1527" y="1217" width="62" height="62" transform="rotate(0,1558,1248)"/><rect x="1527" y="1341" width="62" height="62" transform="rotate(0,1558,1372)"/><rect x="1527" y="1589" width="62" height="62" transform="rotate(0,1558,1620)"/><rect x="1527" y="1837" width="62" height="62" transform="rotate(0,1558,1868)"/><rect x="1589" y="597" width="62" height="62" transform="rotate(0,1620,628)"/><rect x="1589" y="659" width="62" height="62" transform="rotate(0,1620,690)"/><rect x="1589" y="721" width="62" height="62" transform="rotate(0,1620,752)"/><rect x="1589" y="783" width="62" height="62" transform="rotate(0,1620,814)"/><rect x="1589" y="1031" width="62" height="62" transform="rotate(0,1620,1062)"/><rect x="1589" y="1093" width="62" height="62" transform="rotate(0,1620,1124)"/><rect x="1589" y="1217" width="62" height="62" transform="rotate(0,1620,1248)"/><rect x="1589" y="1341" width="62" height="62" transform="rotate(0,1620,1372)"/><rect x="1589" y="1403" width="62" height="62" transform="rotate(0,1620,1434)"/><rect x="1589" y="1465" width="62" height="62" transform="rotate(0,1620,1496)"/><rect x="1589" y="1527" width="62" height="62" transform="rotate(0,1620,1558)"/><rect x="1589" y="1589" width="62" height="62" transform="rotate(0,1620,1620)"/><rect x="1589" y="1651" width="62" height="62" transform="rotate(0,1620,1682)"/><rect x="1589" y="1775" width="62" height="62" transform="rotate(0,1620,1806)"/><rect x="1651" y="659" width="62" height="62" transform="rotate(0,1682,690)"/><rect x="1651" y="1031" width="62" height="62" transform="rotate(0,1682,1062)"/><rect x="1651" y="1093" width="62" height="62" transform="rotate(0,1682,1124)"/><rect x="1651" y="1217" width="62" height="62" transform="rotate(0,1682,1248)"/><rect x="1651" y="1341" width="62" height="62" transform="rotate(0,1682,1372)"/><rect x="1651" y="1403" width="62" height="62" transform="rotate(0,1682,1434)"/><rect x="1651" y="1589" width="62" height="62" transform="rotate(0,1682,1620)"/><rect x="1713" y="597" width="62" height="62" transform="rotate(0,1744,628)"/><rect x="1713" y="659" width="62" height="62" transform="rotate(0,1744,690)"/><rect x="1713" y="783" width="62" height="62" transform="rotate(0,1744,814)"/><rect x="1713" y="845" width="62" height="62" transform="rotate(0,1744,876)"/><rect x="1713" y="907" width="62" height="62" transform="rotate(0,1744,938)"/><rect x="1713" y="1031" width="62" height="62" transform="rotate(0,1744,1062)"/><rect x="1713" y="1093" width="62" height="62" transform="rotate(0,1744,1124)"/><rect x="1713" y="1217" width="62" height="62" transform="rotate(0,1744,1248)"/><rect x="1713" y="1279" width="62" height="62" transform="rotate(0,1744,1310)"/><rect x="1713" y="1527" width="62" height="62" transform="rotate(0,1744,1558)"/><rect x="1713" y="1589" width="62" height="62" transform="rotate(0,1744,1620)"/><rect x="1713" y="1837" width="62" height="62" transform="rotate(0,1744,1868)"/><rect x="1775" y="597" width="62" height="62" transform="rotate(0,1806,628)"/><rect x="1775" y="659" width="62" height="62" transform="rotate(0,1806,690)"/><rect x="1775" y="721" width="62" height="62" transform="rotate(0,1806,752)"/><rect x="1775" y="907" width="62" height="62" transform="rotate(0,1806,938)"/><rect x="1775" y="969" width="62" height="62" transform="rotate(0,1806,1000)"/><rect x="1775" y="1093" width="62" height="62" transform="rotate(0,1806,1124)"/><rect x="1775" y="1155" width="62" height="62" transform="rotate(0,1806,1186)"/><rect x="1775" y="1217" width="62" height="62" transform="rotate(0,1806,1248)"/><rect x="1775" y="1279" width="62" height="62" transform="rotate(0,1806,1310)"/><rect x="1775" y="1341" width="62" height="62" transform="rotate(0,1806,1372)"/><rect x="1775" y="1403" width="62" height="62" transform="rotate(0,1806,1434)"/><rect x="1775" y="1527" width="62" height="62" transform="rotate(0,1806,1558)"/><rect x="1775" y="1775" width="62" height="62" transform="rotate(0,1806,1806)"/><rect x="1837" y="659" width="62" height="62" transform="rotate(0,1868,690)"/><rect x="1837" y="721" width="62" height="62" transform="rotate(0,1868,752)"/><rect x="1837" y="783" width="62" height="62" transform="rotate(0,1868,814)"/><rect x="1837" y="907" width="62" height="62" transform="rotate(0,1868,938)"/><rect x="1837" y="969" width="62" height="62" transform="rotate(0,1868,1000)"/><rect x="1837" y="1031" width="62" height="62" transform="rotate(0,1868,1062)"/><rect x="1837" y="1093" width="62" height="62" transform="rotate(0,1868,1124)"/><rect x="1837" y="1155" width="62" height="62" transform="rotate(0,1868,1186)"/><rect x="1837" y="1279" width="62" height="62" transform="rotate(0,1868,1310)"/><rect x="1837" y="1341" width="62" height="62" transform="rotate(0,1868,1372)"/><rect x="1837" y="1465" width="62" height="62" transform="rotate(0,1868,1496)"/><rect x="1837" y="1589" width="62" height="62" transform="rotate(0,1868,1620)"/><rect x="1837" y="1651" width="62" height="62" transform="rotate(0,1868,1682)"/><rect x="1837" y="1713" width="62" height="62" transform="rotate(0,1868,1744)"/><rect x="1837" y="1775" width="62" height="62" transform="rotate(0,1868,1806)"/><rect x="1837" y="1837" width="62" height="62" transform="rotate(0,1868,1868)"/></clipPath><clipPath id="clip-path-corners-square-color-0-0"><path d="m 101 101 m 139.603 434 h 294.397 v -294.397 c 0 -77.035 -62.568 -139.603 -139.603 -139.603 h -154.793 c -77.035 0 -139.603 62.568 -139.603 139.603 v 154.793 c 0 77.035 62.568 139.603 139.603 139.603 z m -85.353 -294.397 c 0 -47.017 38.337 -85.353 85.353 -85.353 h 154.793 c 47.017 0 85.353 38.337 85.353 85.353 v 240.147 h -240.147 c -47.017 0 -85.353 -38.337 -85.353 -85.353 v -154.793 z"/></clipPath><clipPath id="clip-path-corners-dot-color-0-0"><path d="m 225 225 m 136.71 0 l 0 0 c -13.02 0 -25.641 5.181 -34.941 14.481 l -8.769 8.769 l -8.769 -8.769 c -9.3 -9.3 -21.789 -14.481 -34.941 -14.481 h 0 c -27.236 0 -49.29 22.054 -49.29 49.29 v 0 c 0 13.02 5.181 25.641 14.481 34.809 l 8.769 8.901 l -8.769 8.769 c -9.3 9.3 -14.481 21.789 -14.481 34.941 v 0 c 0 27.236 22.054 49.29 49.29 49.29 h 0 c 13.02 0 25.641 -5.181 34.809 -14.481 l 8.901 -8.769 l 8.769 8.769 c 9.3 9.3 21.789 14.481 34.809 14.481 h 0 c 27.236 0 49.29 -22.054 49.29 -49.29 v 0 c 0 -13.02 -5.181 -25.641 -14.481 -34.809 l -8.636 -8.901 l 8.769 -8.769 c 9.3 -9.3 14.481 -21.789 14.481 -34.941 v 0 c 0 -27.236 -22.054 -49.29 -49.29 -49.29 z"/></clipPath><clipPath id="clip-path-corners-square-color-1-0"><path d="m 1465 101 m 139.603 434 h 294.397 v -294.397 c 0 -77.035 -62.568 -139.603 -139.603 -139.603 h -154.793 c -77.035 0 -139.603 62.568 -139.603 139.603 v 154.793 c 0 77.035 62.568 139.603 139.603 139.603 z m -85.353 -294.397 c 0 -47.017 38.337 -85.353 85.353 -85.353 h 154.793 c 47.017 0 85.353 38.337 85.353 85.353 v 240.147 h -240.147 c -47.017 0 -85.353 -38.337 -85.353 -85.353 v -154.793 z"/></clipPath><clipPath id="clip-path-corners-dot-color-1-0"><path d="m 1589 225 m 136.71 0 l 0 0 c -13.02 0 -25.641 5.181 -34.941 14.481 l -8.769 8.769 l -8.769 -8.769 c -9.3 -9.3 -21.789 -14.481 -34.941 -14.481 h 0 c -27.236 0 -49.29 22.054 -49.29 49.29 v 0 c 0 13.02 5.181 25.641 14.481 34.809 l 8.769 8.901 l -8.769 8.769 c -9.3 9.3 -14.481 21.789 -14.481 34.941 v 0 c 0 27.236 22.054 49.29 49.29 49.29 h 0 c 13.02 0 25.641 -5.181 34.809 -14.481 l 8.901 -8.769 l 8.769 8.769 c 9.3 9.3 21.789 14.481 34.809 14.481 h 0 c 27.236 0 49.29 -22.054 49.29 -49.29 v 0 c 0 -13.02 -5.181 -25.641 -14.481 -34.809 l -8.636 -8.901 l 8.769 -8.769 c 9.3 -9.3 14.481 -21.789 14.481 -34.941 v 0 c 0 -27.236 -22.054 -49.29 -49.29 -49.29 z"/></clipPath><clipPath id="clip-path-corners-square-color-0-1"><path d="m 101 1465 m 139.603 434 h 294.397 v -294.397 c 0 -77.035 -62.568 -139.603 -139.603 -139.603 h -154.793 c -77.035 0 -139.603 62.568 -139.603 139.603 v 154.793 c 0 77.035 62.568 139.603 139.603 139.603 z m -85.353 -294.397 c 0 -47.017 38.337 -85.353 85.353 -85.353 h 154.793 c 47.017 0 85.353 38.337 85.353 85.353 v 240.147 h -240.147 c -47.017 0 -85.353 -38.337 -85.353 -85.353 v -154.793 z"/></clipPath><clipPath id="clip-path-corners-dot-color-0-1"><path d="m 225 1589 m 136.71 0 l 0 0 c -13.02 0 -25.641 5.181 -34.941 14.481 l -8.769 8.769 l -8.769 -8.769 c -9.3 -9.3 -21.789 -14.481 -34.941 -14.481 h 0 c -27.236 0 -49.29 22.054 -49.29 49.29 v 0 c 0 13.02 5.181 25.641 14.481 34.809 l 8.769 8.901 l -8.769 8.769 c -9.3 9.3 -14.481 21.789 -14.481 34.941 v 0 c 0 27.236 22.054 49.29 49.29 49.29 h 0 c 13.02 0 25.641 -5.181 34.809 -14.481 l 8.901 -8.769 l 8.769 8.769 c 9.3 9.3 21.789 14.481 34.809 14.481 h 0 c 27.236 0 49.29 -22.054 49.29 -49.29 v 0 c 0 -13.02 -5.181 -25.641 -14.481 -34.809 l -8.636 -8.901 l 8.769 -8.769 c 9.3 -9.3 14.481 -21.789 14.481 -34.941 v 0 c 0 -27.236 -22.054 -49.29 -49.29 -49.29 z"/></clipPath></defs><rect x="0" y="0" height="2000" width="2000" clip-path="url('#clip-path-background-color')" fill="#ffffff"/><rect x="101" y="101" height="1798" width="1798" clip-path="url('#clip-path-dot-color')" fill="#000000"/><rect x="101" y="101" height="434" width="434" clip-path="url('#clip-path-corners-square-color-0-0')" fill="#000000"/><rect x="225" y="225" height="186" width="186" clip-path="url('#clip-path-corners-dot-color-0-0')" fill="#000000"/><rect x="1465" y="101" height="434" width="434" clip-path="url('#clip-path-corners-square-color-1-0')" fill="#000000"/><rect x="1589" y="225" height="186" width="186" clip-path="url('#clip-path-corners-dot-color-1-0')" fill="#000000"/><rect x="101" y="1465" height="434" width="434" clip-path="url('#clip-path-corners-square-color-0-1')" fill="#000000"/><rect x="225" y="1589" height="186" width="186" clip-path="url('#clip-path-corners-dot-color-0-1')" fill="#000000"/></svg>